<svg xmlns="http://www.w3.org/2000/svg" viewBox="0 0 160 90">
  <path d="M73.4 69.1H30.2c-6.7 0-12.1-5.4-12.1-12.1V35.1c0-6.7 5.4-12.1 12.1-12.1h37.1v9H30.2c-1.8 0-3.1 1.4-3.1 3.1V57c0 1.8 1.4 3.1 3.1 3.1h43.2c1.3 0 3.1-2.4 3.1-4.6V35.4c0-3.4 1.2-6.5 3.5-8.9 2.3-2.3 5.4-3.6 8.8-3.6 5.5 0 8.7 3.7 10.9 6.3.6.7 1.1 1.3 1.6 1.8 1.5 1.5 5.9 6.6 10.7 11.9 4.2 4.8 9 10.2 10.3 11.5.8.8 1.4 1.5 2.1 2.3 1.9 2.3 2.8 3.2 4.1 3.2 2 0 3.4-1.3 3.4-3.1V23h9v33.9c0 6.8-5.4 12.1-12.4 12.1-5.5 0-8.7-3.7-10.9-6.3-.6-.7-1.1-1.3-1.6-1.8-1.5-1.5-5.9-6.6-10.7-11.9-4.2-4.8-9-10.2-10.3-11.5-.8-.8-1.4-1.5-2.1-2.3-1.9-2.3-2.8-3.2-4.1-3.2-1 0-1.8.3-2.5.9-.6.6-.9 1.5-.9 2.5v20.1c0 3.1-1.2 6.3-3.2 8.9-2.2 3-5.5 4.7-8.8 4.7z"/>
</svg>
