<svg xmlns="http://www.w3.org/2000/svg" viewBox="0 0 160 90"><path d="M43.12 8v73.42H118V8H43.12zm17.543 33.37v-7.557c0-7.752 3.556-9.4 7.56-9.4 3.803 0 7.463 1.2 7.672 6.3l-.005 3.45h-4.435l.006-2.24c-.127-2.586-.847-3.18-3.238-3.298-3.485 0-2.998 5.002-2.998 7.165v7.752c-.038 3.643-.043 6.277 2.998 6.277 1.75 0 3.215-.502 3.215-3.214l.004-5.204H68.37v-4.1h7.38v16.57h-4.263l.007-1.74c-.91 1.334-3.204 2.02-4.368 2.128-7.283 0-6.395-4.742-6.46-12.89zm39.717 22.96H60.597v-6.205h39.783v6.205zm.052-10.49H96.12l.007-19.154L92.29 53.84h-3.487l-3.638-19.06.003 19.06H80.86V25.093h6.003l3.777 19.09 3.782-19.09h6.01v28.75z"/></svg>