<svg xmlns="http://www.w3.org/2000/svg" viewBox="0 0 160 90"><path d="M138.5 44.7c0-2.1.5-4.1 1.3-5.3.8-1.2 2.1-1.8 3.5-1.8 1.3-.1 2.6.7 3.3 1.8.8 1.2 1.2 3.2 1.2 5.3h-9.3zm11.5.1c0-2.4-.6-4.4-1.8-5.8-1.2-1.4-2.8-2.1-4.9-2.1-2.2 0-3.9.7-5.2 2.1s-1.9 3.3-1.9 5.7c0 1.2.2 2.4.6 3.6.3.9 2 4.2 6.8 4.2 1.3 0 2.6-.3 3.8-.9 1.1-.6 1.9-1.5 2.5-2.6l-.4-.2c-.5 1-1.3 1.9-2.3 2.4-1 .6-2.1.9-3.2.9-3.3 0-4.8-3.5-4.8-3.5-.5-1.1-.7-2.3-.7-3.5H150v-.3zm-60.4 7l-1.8-1.2v-8.2c0-1.7-.5-3.1-1.5-4-1-1-2.4-1.5-4.1-1.5-4.3 0-6 3.9-6 3.9v-3.6h-5.1v.5h.8l2.1 1.2v11.7l-2.1 1.2h-.8v.5h7.7v-.5H78l-1.8-1.2v-7.3c0-1 .3-1.9.8-2.8 1.1-1.8 3-2.8 5.1-2.8 1 0 2 .4 2.6 1.3.7.9 1 2 1 3.6v8.1l-2.1 1.2h-.8v.5h7.7v-.5h-.9v-.1zm22.6-1.9c-1.5 2-4.4 2.5-6.4 1-.4-.3-.7-.6-1-1-.9-1.3-1.4-3-1.4-5.2s.5-4 1.4-5.2c1.5-2 4.4-2.5 6.4-1 .4.3.7.6 1 1 .9 1.3 1.4 3 1.4 5.2-.1 2.2-.5 4-1.4 5.2m-3.7-13c-2.2 0-4 .7-5.3 2.1-1.3 1.4-1.9 3.3-1.9 5.7s.7 4.3 1.9 5.7 3.1 2.1 5.3 2.1c2.2 0 4-.7 5.3-2.1s1.9-3.3 1.9-5.7c0-2.4-.7-4.3-1.9-5.7s-3.1-2.1-5.3-2.1m-13.1-3.7l-2.1 1.2v1.8l-1.6 1h-1.3v.5h3v10.7c0 2.8 1.3 4.2 3.7 4.2.6 0 1.1-.1 1.6-.3.5-.2.9-.5 1.3-.9l.1-.1-.4-.7-.1.1c-.6.7-1.5 1.1-2.5 1.1-.5 0-1-.3-1.1-.8-.3-.6-.4-1.5-.4-2.6V37.6h4.6v-.5h-4.6l-.2-3.9zm39 18.6l-1.8-1.2v-8.2c0-1.7-.5-3.1-1.5-4-1-1-2.4-1.5-4.1-1.5-4.3 0-6 3.9-6 3.9v-3.6h-5v.5h.8l2.1 1.2v11.7l-2.1 1.2h-.8v.5h7.7v-.5h-.8l-1.8-1.2v-7.3c0-1 .3-1.9.8-2.8 1.1-1.8 3-2.8 5.1-2.8 1 0 2 .4 2.6 1.3.7.9 1 2 1 3.6v8.1l-2.1 1.2h-.8v.5h7.7v-.5h-1v-.1zm-75.5-7.1c0-2.1.5-4.1 1.3-5.3.8-1.2 2.1-1.8 3.5-1.8 1.3-.1 2.6.7 3.3 1.8.8 1.2 1.2 3.2 1.2 5.3h-9.3zm4.8-7.8c-2.2 0-3.9.7-5.2 2.1s-1.9 3.3-1.9 5.7c0 1.2.2 2.4.6 3.6.3.9 2 4.2 6.8 4.2 1.3 0 2.6-.3 3.8-.9 1.1-.6 1.9-1.5 2.5-2.6l-.4-.2c-.5 1-1.3 1.9-2.3 2.4-1 .6-2.1.9-3.2.9-3.3 0-4.8-3.5-4.8-3.5-.5-1.1-.7-2.3-.7-3.5h11.5v-.3c0-2.4-.6-4.4-1.8-5.8-1.2-1.4-2.8-2.1-4.9-2.1m-20.3 7.8c0-2.1.5-4.1 1.3-5.3.8-1.2 2.1-1.8 3.5-1.8 1.3-.1 2.6.7 3.3 1.8.8 1.2 1.2 3.2 1.2 5.3h-9.3zm4.8-7.8c-2.2 0-3.9.7-5.2 2.1s-1.9 3.3-1.9 5.7c0 1.2.2 2.4.6 3.6.3.9 2 4.2 6.8 4.2 1.3 0 2.6-.3 3.8-.9 1.1-.6 1.9-1.5 2.5-2.6l-.4-.2c-.5 1-1.3 1.9-2.3 2.4-1 .6-2.1.9-3.2.9-3.3 0-4.8-3.5-4.8-3.5-.5-1.1-.7-2.3-.7-3.5h11.5v-.3c0-2.4-.6-4.4-1.8-5.8-1.2-1.4-2.8-2.1-4.9-2.1m-8.2.9c-.1-.1-.2-.1-.3-.2-.6-.4-1.3-.6-1.9-.5-3.4.2-5 2.8-5.5 4.1v-3.8h-5.1v.5h.8l2.1 1.2v11.7L28 51.9h-.8v.5h7.7v-.5h-.8l-1.8-1.2v-7.1c-.1-1 .1-1.9.7-2.7 1-1.8 2.8-3 4.9-3.1h.5c-.5.5-.5 1.3 0 1.7.5.5 1.3.5 1.7 0 .4-.4.5-1.1.1-1.6l-.2-.1zm-20.3 8.1c-.8.9-1.9 1.3-3 1.3-1.2 0-2.3-.4-3-1.3-.8-.9-1.2-2-1.2-3.5s.4-2.6 1.2-3.5c.8-.9 1.9-1.3 3-1.3 1.1-.1 2.2.4 3 1.3.7.9 1.1 2 1.1 3.5s-.3 2.6-1.1 3.5m-4.1 6.3h3.2c1.1 0 2 .2 2.7.7.7.5 1 .9 1 1.5 0 .5-.2.8-.7 1.2-.5.5-1.2.8-1.9 1-.9.3-1.8.4-2.7.3-1.6 0-3-.3-4-.7-1.1-.5-1.7-1.3-1.7-1.9 0-.8.5-1.2 1.3-1.6 1-.4 1.9-.6 2.8-.5m9.7-14.3c-.7-.6-1.5-.9-2.4-.9-.8.1-1.6.4-2.2.9l-.1-.1c-1.2-.7-2.5-1.1-3.9-1-1.9 0-3.4.5-4.6 1.5s-1.8 2.5-1.8 4c0 1.1.3 2.2.9 3.1.5.7 1.1 1.2 1.8 1.6l.8.4c-.7.1-1.3.4-1.8.7-.6.4-.9.9-.9 1.6-.1.5.2 1.1.6 1.5.4.3.8.5 1.3.7-.7.1-1.4.4-2 .7-.6.3-1 1-1 1.6 0 1 .7 1.8 2 2.4 1.3.6 3.1.9 5.3.9 1.3 0 2.5-.1 3.7-.5.9-.2 1.8-.7 2.6-1.3.6-.5.9-1.2.9-2 0-1-.4-1.9-1.2-2.5-1-.8-2.5-1.3-4.1-1.3h-3.8c-1.3 0-2-.1-2.7-.3-.1-.1-.3-.1-.4-.2-.4-.2-.4-.5-.4-.6.1-.5 1-.9 1-.9.6-.3 1.2-.4 1.8-.5.7.1 1.4.2 2 .2 1.9 0 3.4-.5 4.6-1.5 1.1-1 1.8-2.5 1.7-4 0-.8-.2-1.6-.5-2.4-.3-.6-.7-1.2-1.3-1.6l-.1-.1c.5-.5 1.1-.7 1.8-.8.5 0 .9.1 1.3.2-.2.1-.3.1-.5.3-.4.4-.4 1.1 0 1.5l.1.1c.5.4 1.1.3 1.6-.1.4-.2.4-.8-.1-1.3.1 0 0 0 0 0"/></svg>