<svg xmlns="http://www.w3.org/2000/svg" viewBox="0 0 160 90"><g id="Layer_1"><path class="st0" d="M10.5 46.9l-1.5-2-.5.4-.4.5 2 1.5.1-.2c.1-.2.3-.2.3-.2zm1 .3l2-1.5-.4-.5-.5-.4-1.5 2 .2.1c.2.1.2.3.2.3zm1.1 3l.5-.4.4-.5-2-1.5-.1.2-.2.1 1.4 2.1zm-3.6 0l1.5-2-.2-.1-.1-.2-2 1.5.4.5.4.3zM5.5 45.3l-.2.7 2.4.6v-.3l.3-.2-2.1-1.3-.4.5zm2.2 3.3l-2.4.6.2.6.3.6L7.9 49l-.2-.2v-.2zm1.6 4.5l.6-2.4h-.3l-.2-.2-1.3 2.1.5.3.7.2zm2.8-2.4h-.3l.6 2.4.6-.2.6-.3-1.3-2.1-.2.2zm4.1-.9l.2-.6-2.4-.6v.3l-.2.1 2.1 1.3.3-.5zm-2.3-3.3l2.4-.6-.2-.6-.3-.6-2.1 1.3.2.2v.3zm-.8-4.3l-.7-.2-.6 2.4h.3l.2.2 1.3-2.1-.5-.3zm-3.5 2.3h.3L9.3 42l-.6.2-.6.3 1.3 2.1.2-.1zM6 44.3l.2-.1-1.8-1.7-.4.4-.3.6 2.3 1c-.1.1 0-.2 0-.2zm-3.3 1.6l-.1.6 2.5.1-.1-.3.2-.2-2.3-.9c0 .1-.2.7-.2.7zm0 2.6l.1.6.2.6 2.4-.9-.2-.2.1-.3-2.6.2zm1.7 4.2L6.2 51l-.2-.2-.1-.3-2.3 1 .3.6.5.6zm2.4 2.1l1-2.3-.3-.1-.1-.2L5.7 54l.5.4c0 .1.6.4.6.4zm2.7-1.6l-.9 2.3.6.2.6.1.1-2.5-.3.1-.1-.2zm2.5.1l-.3-.1.1 2.5h.6l.6-.2-.9-2.4c.1 0-.1.2-.1.2zm2.1-.9l-.3.1 1 2.3.6-.3.5-.4-1.7-1.9-.1.2zm1.6-1.6l-.2.2 1.8 1.7.4-.5.3-.6-2.3-1c.1-.1 0 .2 0 .2zm3.3-1.6l.1-.6-2.5-.1.1.3-.2.2 2.4.9c-.1-.1.1-.7.1-.7zm.1-2.6l-.1-.7-.2-.6-2.4.9.2.2-.1.3 2.6-.1zm-1.8-4.1l-1.8 1.7.2.1.1.3 2.3-1-.3-.6-.5-.5zm-2.4-2.2l-1 2.3.3.1.1.2L16 41l-.5-.4-.6-.3zm-2.7 1.6l.9-2.4-.6-.2-.6-.1-.1 2.5.3-.1.1.3zm-2.5-.1l.3.1-.1-2.5-.6.1-.6.2.8 2.3.2-.2zm-2.1.9l.3-.1-1-2.3-.6.3-.6.4 1.7 1.8.2-.1zM4.9 41.6l.2-.1-1.5-2-.5.4-.4.5 2 1.5c.1-.1.2-.3.2-.3zm-1.8 2.7l.2-.2-2.1-1.3-.3.5-.3.7 2.4.6.1-.3zm-.7 3.2l.1-.2-2.5-.4v.6l.1.6 2.5-.4-.2-.2zm.7 3.3v-.3l-2.4.6.2.6.3.6L3.3 51l-.2-.2zm1.7 2.5l-2 1.5.4.5.5.4 1.5-2-.2-.1c-.1-.1-.2-.3-.2-.3zm2.6 1.8l-1.3 2.1.5.3.6.2.6-2.4h-.2l-.2-.2zm3.5.9l-.2-.1-.4 2.5.6.1.6-.1-.4-2.5-.2.1zm3.2-.7h-.3l.6 2.4.6-.2.6-.3-1.3-2.1c-.1 0-.2.2-.2.2zm2.7-1.8l-.2.1 1.5 2 .5-.4.4-.5-2-1.5c-.1.1-.2.3-.2.3zm1.8-2.7l-.2.2 2.1 1.3.3-.5.2-.6-2.4-.6v.2zm3-3.9l-2.5.4.1.2-.1.2 2.5.4.1-.6c0 .1-.1-.6-.1-.6zm-3-2.6v.3L21 44l-.2-.6-.3-.6-2.1 1.3.2.2zm-1.7-2.4l2-1.5-.4-.5-.5-.4-1.5 2 .2.1.2.3zM14.2 40l1.3-2.1-.5-.4-.6-.2-.6 2.4h.3c0 .1.1.3.1.3zm-3.3-.9l.2.1.4-2.5-.6-.1-.6.1.4 2.5.2-.1zm-3.3.7h.3l-.6-2.4-.6.2-.6.3L7.4 40l.2-.2zM149.1 47.1c0-2 .4-3.9 1.2-5.1.7-1.1 2-1.8 3.3-1.7 1.3-.1 2.5.6 3.1 1.7.7 1.1 1.1 3 1.2 5.1h-8.8zm10.9.1c0-2.3-.6-4.2-1.7-5.5-1.1-1.3-2.7-2-4.7-2-2.1 0-3.7.7-4.9 2-1.2 1.3-1.8 3.1-1.8 5.4 0 1.2.2 2.3.6 3.4.3.8 1.9 4 6.5 4 1.2 0 2.5-.3 3.6-.9 1-.5 1.8-1.4 2.4-2.5l-.4-.2c-.5 1-1.3 1.8-2.2 2.3-.9.6-2 .9-3.1.8-3.1 0-4.5-3.3-4.5-3.3a9.6 9.6 0 01-.6-3.3H160v-.2zm-57.5 6.6l-1.7-1.2v-7.8c0-1.7-.5-2.9-1.4-3.8s-2.3-1.4-3.9-1.4c-4.1 0-5.7 3.7-5.7 3.7v-3.4H85v.4h.8l2 1.2v11.1l-2 1.2H85v.4h7.3v-.4h-.8l-1.7-1.2v-7c0-.9.2-1.8.7-2.6 1-1.7 2.9-2.7 4.9-2.7 1 0 1.9.4 2.5 1.2.6.8.9 1.9.9 3.4v7.7l-2 1.2H96v.4h7.3v-.4h-.8zM124 52c-1.4 1.9-4.2 2.4-6.1.9-.4-.3-.7-.6-.9-.9-.9-1.2-1.3-2.9-1.3-5s.4-3.8 1.3-5c1.4-1.9 4.2-2.4 6.1-.9.4.3.7.6.9.9.9 1.2 1.3 2.9 1.3 5 0 2.2-.4 3.8-1.3 5m-3.5-12.4c-2.1 0-3.8.7-5.1 2-1.2 1.3-1.8 3.1-1.8 5.4 0 2.3.6 4.1 1.8 5.4 1.2 1.3 3 2 5.1 2 2.1 0 3.8-.7 5.1-2 1.2-1.3 1.8-3.1 1.8-5.4s-.6-4.1-1.8-5.4c-1.3-1.3-3-2-5.1-2M108 36.1l-2 1.2V39l-1.6.9h-1.2v.4h2.8v10.2c0 2.6 1.2 4 3.5 4 .5 0 1.1-.1 1.6-.3.5-.2.9-.5 1.2-.8l.1-.1-.4-.6-.1.1c-.6.6-1.5 1-2.4 1-.5 0-.9-.3-1.1-.8-.2-.5-.4-1.4-.4-2.5V40.3h4.4v-.4H108v-3.8zm37.2 17.7l-1.7-1.2v-7.8c0-1.7-.5-2.9-1.4-3.8-.9-.9-2.3-1.4-3.9-1.4-4.1 0-5.7 3.7-5.7 3.7v-3.4h-4.8v.4h.8l2 1.2v11.1l-2 1.2h-.8v.4h7.3v-.4h-.8l-1.7-1.2v-7c0-.9.2-1.8.7-2.6 1-1.7 2.9-2.7 4.9-2.7 1 0 1.9.4 2.5 1.2.6.8.9 1.9.9 3.4v7.7l-2 1.2h-.8v.4h7.3v-.4h-.8zm-71.9-6.7c0-2 .4-3.9 1.2-5.1.7-1.1 2-1.8 3.3-1.7 1.3-.1 2.5.6 3.1 1.7.7 1.1 1.1 3 1.2 5.1h-8.8zm4.6-7.5c-2.1 0-3.7.7-4.9 2-1.2 1.3-1.8 3.1-1.8 5.4 0 1.2.2 2.3.6 3.4.3.8 1.9 4 6.5 4 1.2 0 2.5-.3 3.6-.9 1-.5 1.8-1.4 2.4-2.5l-.4-.2c-.5 1-1.3 1.8-2.2 2.3-.9.6-2 .9-3.1.8-3.1 0-4.5-3.3-4.5-3.3a9.6 9.6 0 01-.6-3.3h10.9V47c0-2.3-.6-4.2-1.7-5.5-1.3-1.2-2.9-1.9-4.8-1.9m-19.4 7.5c0-2 .4-3.9 1.2-5.1.7-1.1 2-1.8 3.3-1.7 1.3-.1 2.5.6 3.1 1.7.7 1.1 1.1 3 1.2 5.1h-8.8zm4.6-7.5c-2.1 0-3.7.7-4.9 2-1.2 1.3-1.8 3.1-1.8 5.4 0 1.2.2 2.3.6 3.4.3.8 1.9 4 6.5 4 1.2 0 2.5-.3 3.6-.9 1-.5 1.8-1.4 2.4-2.5l-.5-.1c-.5 1-1.3 1.8-2.2 2.3-.9.6-2 .9-3.1.8-3.1 0-4.5-3.3-4.5-3.3a9.6 9.6 0 01-.6-3.3h10.9v-.3c0-2.3-.6-4.2-1.7-5.5-1.2-1.3-2.7-2-4.7-2m-7.8.9c-.1-.1-.2-.1-.2-.2-.5-.4-1.2-.6-1.8-.5-3.3.2-4.8 2.6-5.3 3.9v-3.6h-4.8v.4h.8l2 1.2v11.1L44 54h-.8v.4h7.3V54h-.8L48 52.8V46c-.1-.9.1-1.8.6-2.6.9-1.7 2.7-2.9 4.7-3h.5c-.4.5-.4 1.2 0 1.6.5.4 1.2.4 1.6 0 .4-.4.4-1 .1-1.5h-.2zM36 48.2c-.7.8-1.8 1.3-2.9 1.2-1.1 0-2.2-.4-2.9-1.2-.7-.8-1.1-1.9-1.1-3.3s.4-2.5 1.1-3.3c.7-.8 1.8-1.3 2.9-1.2 1.1-.1 2.1.4 2.9 1.2.7.8 1.1 1.9 1.1 3.3s-.4 2.4-1.1 3.3m-4 6h3.1c1.1 0 1.9.2 2.6.6.7.4.9.8.9 1.5 0 .4-.2.8-.6 1.2-.5.4-1.1.8-1.8.9-.8.2-1.7.4-2.6.3-1.6 0-2.8-.2-3.8-.7-1-.5-1.6-1.2-1.6-1.8 0-.8.5-1.2 1.2-1.5.9-.4 1.8-.6 2.6-.5m9.3-13.6c-.6-.6-1.5-.9-2.3-.8-.8.1-1.5.4-2.1.9l-.1-.1c-1.1-.7-2.4-1-3.7-.9-1.8 0-3.2.5-4.4 1.4-1.1.9-1.7 2.4-1.7 3.8 0 1.1.3 2.1.9 3 .5.6 1.1 1.1 1.8 1.5l.8.4c-.6.1-1.2.4-1.8.7-.6.4-.9.9-.9 1.5-.1.5.2 1 .5 1.4.4.3.8.5 1.2.6-.6.1-1.3.4-1.9.7-.6.3-.9.9-1 1.6 0 .9.6 1.7 1.9 2.3 1.2.6 2.9.9 5 .9 1.2 0 2.4-.1 3.5-.4.9-.2 1.7-.6 2.4-1.2.5-.5.9-1.2.9-1.9 0-.9-.4-1.8-1.1-2.4-.9-.8-2.4-1.2-3.9-1.2h-3.6c-1.2 0-1.9-.1-2.6-.3-.1-.1-.3-.1-.4-.2-.4-.2-.4-.5-.4-.5.1-.5.9-.8.9-.8.6-.2 1.1-.4 1.8-.5.6.1 1.3.2 1.9.2 1.8 0 3.2-.5 4.3-1.4 1.1-.9 1.7-2.4 1.6-3.8 0-.8-.2-1.6-.5-2.3-.3-.6-.7-1.1-1.2-1.5l.2-.3c.5-.4 1.1-.7 1.7-.7.4 0 .9.1 1.3.2-.2.1-.3.1-.4.3-.4.4-.4 1 0 1.4l.1.1c.4.4 1.1.3 1.5-.1.3-.5.2-1.1-.2-1.6.1 0 0 0 0 0"/></g></svg>