<svg xmlns="http://www.w3.org/2000/svg" viewBox="0 0 160 90"><path d="M85.235 54.934h15.956v-1.97H87.964v-6.21h9.947v-2h-9.947v-5.718h13.228v-2H85.236m8.296-2.829l-2.185 2.428 6.807-2.428m29.8 18.758v-15.93h-2.48v17.9h16.107v-1.97m-30.075-15.929l-9.058 17.898h3.077l2.302-4.623h10.866l2.368 4.624h3.023l-9.093-17.898h-3.484zM108.99 48.05l4.278-8.484 4.323 8.484h-8.6zm-32.418-.57c4.09-1.104 4.493-4.135 4.473-5.23-.25-3.18-2.374-5.214-6.235-5.214H63.542v17.898h2.583V47.46h7.312l5.39 7.474h3.232s-3.87-5.048-5.488-7.454m-2.114-2.155h-8.332v-6.12h8.626c1.96 0 3.09.918 3.496 2.09.27.813.1 1.882-.346 2.61-.728 1.163-2.11 1.42-3.444 1.42M48.132 34.066c-7.224 0-12.123 5.11-12.123 11.267 0 6.503 5.42 11.08 12.122 11.08 6.747 0 12.167-4.526 12.167-11.08 0-6.157-4.963-11.267-12.168-11.267m-.084 20.15c-4.977 0-9.103-4.02-9.103-8.878 0-4.852 3.932-9.053 9.296-9.053 5.275 0 9.146 4.2 9.146 9.053 0 4.856-4.323 8.88-9.338 8.88m-18.524-10.81h1.873l3.35-6.372H32.06M20.492 52.965v-15.93H18.03v17.9h16.09v-1.97"/></svg>