<svg xmlns="http://www.w3.org/2000/svg" viewBox="0 0 160 90"><path d="M37.552 38.661h5.853v25.572h-5.853V38.661zm-11.15 10.651l-2.663-.527c-1.969-.388-2.968-1.248-2.968-2.606 0-1.415 1.47-2.497 3.439-2.497 1.858 0 3.301.971 3.439 2.274l5.214-2.025c-1.331-3.245-4.66-5.408-8.626-5.408-2.219 0-4.438.722-6.102 1.969-1.303.999-2.857 2.774-2.857 5.687 0 3.798 2.663 6.628 7.322 7.793.722.193 1.692.415 2.663.582 2.081.362 2.968 1.083 2.968 2.44 0 1.36-1.137 2.747-3.717 2.747-2.136 0-3.911-1.359-4.549-3.329l-5.159 2.025c1.415 4.021 5.021 6.463 9.68 6.463 5.076 0 9.237-3.55 9.237-7.906.002-3.937-2.606-6.656-7.321-7.682zm42.021-8.516a13.65 13.65 0 0 0-7.544-2.246c-7.489 0-13.37 5.796-13.37 13.174 0 7.379 5.88 13.176 13.37 13.176 2.829 0 5.409-.832 7.544-2.247l1.137 1.609h4.715V26.346h-5.853v14.45zm-7.572 18.419c-4.272 0-7.488-3.219-7.488-7.517 0-4.271 3.216-7.518 7.488-7.518s7.488 3.218 7.488 7.518c0 4.298-3.216 7.517-7.488 7.517zM40.493 26.956a3.208 3.208 0 0 0-3.19 3.19v.028a3.208 3.208 0 0 0 3.19 3.19 3.208 3.208 0 0 0 3.189-3.19v-.028a3.19 3.19 0 0 0-3.189-3.19zm46.335-.609h-8.626v1.387l3.605.139v34.754l-3.605.139v1.498h12.675v-1.498l-4.049-.139v-36.28zm55.916 28.179c-1.581 6.519-6.352 7.435-8.293 7.435-2.801 0-5.187-1.249-6.879-3.606-1.636-2.246-2.413-5.991-2.413-9.486h18.168c-.555-3.467-2.22-6.102-4.633-7.96-1.941-1.526-4.354-2.386-6.601-2.386-3.384 0-6.49 1.304-8.792 3.662-2.386 2.468-3.689 5.63-3.689 9.458 0 3.967 1.276 7.323 3.689 9.709 2.302 2.273 5.52 3.521 9.124 3.521 5.937 0 10.042-3.55 11.373-10.067l-1.054-.28zm-5.381-7.128h-12.065c.86-4.715 3.606-7.627 6.906-7.627 3.911 0 5.159 4.271 5.159 7.627zm-22.632 7.128c-1.582 6.519-6.353 7.435-8.294 7.435-2.802 0-5.187-1.249-6.879-3.606-1.636-2.246-2.413-5.991-2.413-9.486h18.168c-.555-3.467-2.22-6.102-4.632-7.96-1.942-1.526-4.354-2.386-6.602-2.386-3.384 0-6.49 1.304-8.793 3.662-2.385 2.468-3.717 5.63-3.717 9.486 0 3.967 1.276 7.321 3.689 9.708 2.303 2.272 5.52 3.522 9.125 3.522 5.936 0 10.041-3.55 11.372-10.068l-1.024-.307zm-5.381-7.128H97.284c.86-4.715 3.605-7.627 6.906-7.627 3.913 0 5.16 4.271 5.16 7.627z"/></svg>