<?xml version="1.0" encoding="utf-8"?>
<!-- Generator: Adobe Illustrator 25.0.0, SVG Export Plug-In . SVG Version: 6.00 Build 0)  -->
<svg version="1.1" xmlns="http://www.w3.org/2000/svg" xmlns:xlink="http://www.w3.org/1999/xlink" x="0px" y="0px"
	 viewBox="0 0 769 295.38" style="enable-background:new 0 0 769 295.38;" xml:space="preserve">
<style type="text/css">
	.st0{fill:#CCCCCC;}
	.st1{fill:#3FC774;}
	.st2{fill:#FFFFFF;}
	.st3{fill:#F48386;}
</style>
<g id="boites_grises">
	<rect x="386.98" y="188.83" class="st0" width="47" height="35"/>
	<rect x="328" y="260.38" class="st0" width="159" height="35"/>
	<rect x="557.53" y="81.06" class="st0" width="47" height="35"/>
	<rect y="68.66" class="st0" width="110" height="59"/>
</g>
<g id="boites_vertes">
	<rect x="147" y="69.16" class="st1" width="118" height="58"/>
	<rect x="475" class="st1" width="212" height="35"/>
	<rect x="643" y="68" class="st1" width="126" height="60"/>
	<polygon class="st1" points="302,100 409,45.76 519,100 409,152.75 	"/>
</g>
<g id="texte">
	<g>
		<path class="st2" d="M157.26,93.26v-0.98l1.27-0.22V83.1l-1.27-0.22v-0.99h4.09v0.99l-1.27,0.22v8.96l1.27,0.22v0.98H157.26z"/>
		<path class="st2" d="M162.56,93.26v-0.98l1.27-0.22v-6.04l-1.27-0.22v-0.99h2.65l0.11,1.26c0.28-0.45,0.63-0.8,1.06-1.04
			c0.42-0.25,0.91-0.37,1.45-0.37c0.91,0,1.62,0.27,2.12,0.8c0.5,0.53,0.75,1.36,0.75,2.47v4.13l1.27,0.22v0.98h-4.09v-0.98
			l1.27-0.22v-4.1c0-0.74-0.15-1.27-0.44-1.59c-0.29-0.31-0.74-0.47-1.35-0.47c-0.44,0-0.83,0.11-1.18,0.32
			c-0.34,0.21-0.61,0.51-0.82,0.88v4.96l1.27,0.22v0.98H162.56z"/>
		<path class="st2" d="M173,93.26v-0.98l1.27-0.22v-6.04L173,85.8v-0.99h2.81v7.25l1.27,0.22v0.98H173z M174.19,82.72v-1.65h1.62
			v1.65H174.19z"/>
		<path class="st2" d="M181.13,93.39c-0.62,0-1.12-0.18-1.49-0.55s-0.55-0.95-0.55-1.76v-5.13h-1.34v-1.14h1.34v-2.04h1.54v2.04
			h1.84v1.14h-1.84v5.13c0,0.41,0.08,0.71,0.24,0.9c0.16,0.19,0.38,0.29,0.65,0.29c0.18,0,0.39-0.02,0.61-0.05
			c0.22-0.03,0.4-0.06,0.52-0.09l0.21,1.01c-0.22,0.07-0.5,0.13-0.82,0.18C181.71,93.37,181.41,93.39,181.13,93.39z"/>
		<path class="st2" d="M183.79,93.26v-0.98l1.27-0.22v-6.04l-1.27-0.22v-0.99h2.81v7.25l1.27,0.22v0.98H183.79z M184.99,82.72v-1.65
			h1.62v1.65H184.99z"/>
		<path class="st2" d="M191.67,93.42c-0.88,0-1.55-0.21-2.01-0.64c-0.46-0.43-0.69-1.04-0.69-1.82c0-0.54,0.15-1,0.44-1.4
			c0.29-0.4,0.72-0.71,1.28-0.93c0.56-0.22,1.22-0.33,2-0.33h1.51v-0.83c0-0.51-0.16-0.91-0.46-1.19c-0.31-0.28-0.75-0.42-1.31-0.42
			c-0.35,0-0.66,0.04-0.92,0.13c-0.26,0.09-0.5,0.2-0.71,0.36l-0.16,1.18h-1.19v-1.94c0.38-0.31,0.82-0.54,1.33-0.7
			c0.5-0.16,1.06-0.24,1.68-0.24c1.03,0,1.83,0.25,2.41,0.73c0.58,0.49,0.88,1.19,0.88,2.1v4.07c0,0.11,0,0.22,0,0.32
			c0,0.1,0.01,0.21,0.02,0.31l0.82,0.09v0.98h-2.21c-0.05-0.23-0.08-0.43-0.11-0.62c-0.03-0.18-0.04-0.36-0.05-0.55
			c-0.3,0.38-0.67,0.7-1.11,0.95S192.18,93.42,191.67,93.42z M191.9,92.13c0.51,0,0.98-0.12,1.4-0.37c0.42-0.24,0.72-0.54,0.91-0.88
			v-1.53h-1.56c-0.71,0-1.24,0.17-1.59,0.51c-0.35,0.34-0.53,0.72-0.53,1.13c0,0.37,0.11,0.65,0.34,0.85
			C191.09,92.04,191.44,92.13,191.9,92.13z"/>
		<path class="st2" d="M197.71,93.26v-0.98l1.27-0.22v-9.77l-1.27-0.22v-0.99h2.81v10.98l1.27,0.22v0.98H197.71z"/>
		<path class="st2" d="M202.83,93.26v-0.98l1.27-0.22v-6.04l-1.27-0.22v-0.99h2.81v7.25l1.27,0.22v0.98H202.83z M204.03,82.72v-1.65
			h1.62v1.65H204.03z"/>
		<path class="st2" d="M211.4,93.42c-0.57,0-1.1-0.06-1.59-0.17c-0.5-0.11-1.02-0.29-1.58-0.53l-0.02-2.01h1.16l0.29,1.21
			c0.29,0.12,0.57,0.21,0.85,0.26s0.57,0.08,0.89,0.08c0.62,0,1.07-0.12,1.34-0.36c0.27-0.24,0.41-0.54,0.41-0.89
			c0-0.33-0.14-0.62-0.41-0.85c-0.27-0.23-0.77-0.43-1.49-0.59c-1.02-0.23-1.77-0.55-2.25-0.94c-0.48-0.39-0.72-0.92-0.72-1.57
			c0-0.46,0.13-0.87,0.4-1.23c0.27-0.36,0.64-0.65,1.11-0.86c0.47-0.21,1.03-0.32,1.66-0.32c0.64,0,1.19,0.07,1.64,0.22
			c0.46,0.15,0.85,0.34,1.19,0.59l0.08,1.93h-1.16l-0.25-1.12c-0.18-0.14-0.4-0.24-0.65-0.31c-0.25-0.07-0.54-0.11-0.86-0.11
			c-0.48,0-0.87,0.11-1.17,0.34c-0.3,0.22-0.45,0.51-0.45,0.84c0,0.2,0.04,0.37,0.13,0.52c0.09,0.15,0.25,0.28,0.5,0.39
			c0.24,0.12,0.6,0.23,1.08,0.35c1.18,0.28,2,0.63,2.46,1.05c0.47,0.43,0.7,0.95,0.7,1.58c0,0.71-0.26,1.31-0.79,1.79
			C213.37,93.18,212.54,93.42,211.4,93.42z"/>
		<path class="st2" d="M218.7,93.42c-0.88,0-1.55-0.21-2.01-0.64c-0.46-0.43-0.69-1.04-0.69-1.82c0-0.54,0.15-1,0.44-1.4
			c0.29-0.4,0.72-0.71,1.28-0.93c0.56-0.22,1.22-0.33,2-0.33h1.51v-0.83c0-0.51-0.16-0.91-0.46-1.19c-0.31-0.28-0.75-0.42-1.31-0.42
			c-0.35,0-0.66,0.04-0.92,0.13c-0.26,0.09-0.5,0.2-0.71,0.36l-0.16,1.18h-1.19v-1.94c0.38-0.31,0.82-0.54,1.33-0.7
			c0.5-0.16,1.06-0.24,1.68-0.24c1.03,0,1.83,0.25,2.41,0.73c0.58,0.49,0.88,1.19,0.88,2.1v4.07c0,0.11,0,0.22,0,0.32
			c0,0.1,0.01,0.21,0.02,0.31l0.82,0.09v0.98h-2.21c-0.05-0.23-0.08-0.43-0.11-0.62c-0.03-0.18-0.04-0.36-0.05-0.55
			c-0.3,0.38-0.67,0.7-1.11,0.95S219.2,93.42,218.7,93.42z M218.92,92.13c0.51,0,0.98-0.12,1.4-0.37c0.42-0.24,0.72-0.54,0.91-0.88
			v-1.53h-1.56c-0.71,0-1.24,0.17-1.59,0.51c-0.35,0.34-0.53,0.72-0.53,1.13c0,0.37,0.11,0.65,0.34,0.85
			C218.11,92.04,218.46,92.13,218.92,92.13z"/>
		<path class="st2" d="M227.79,93.39c-0.62,0-1.12-0.18-1.49-0.55s-0.55-0.95-0.55-1.76v-5.13h-1.34v-1.14h1.34v-2.04h1.54v2.04
			h1.84v1.14h-1.84v5.13c0,0.41,0.08,0.71,0.24,0.9c0.16,0.19,0.38,0.29,0.65,0.29c0.18,0,0.39-0.02,0.61-0.05
			c0.22-0.03,0.4-0.06,0.52-0.09l0.21,1.01c-0.22,0.07-0.5,0.13-0.82,0.18C228.38,93.37,228.07,93.39,227.79,93.39z"/>
		<path class="st2" d="M230.46,93.26v-0.98l1.27-0.22v-6.04l-1.27-0.22v-0.99h2.81v7.25l1.27,0.22v0.98H230.46z M231.65,82.72v-1.65
			h1.62v1.65H231.65z"/>
		<path class="st2" d="M239.42,93.42c-0.78,0-1.45-0.18-2.02-0.55c-0.57-0.37-1-0.88-1.31-1.52c-0.31-0.65-0.46-1.39-0.46-2.22
			v-0.17c0-0.83,0.15-1.57,0.46-2.22c0.31-0.65,0.74-1.16,1.31-1.53c0.56-0.37,1.23-0.55,2-0.55c0.78,0,1.45,0.19,2.02,0.55
			c0.56,0.37,1,0.88,1.31,1.52c0.31,0.65,0.46,1.39,0.46,2.23v0.17c0,0.84-0.15,1.58-0.46,2.23c-0.31,0.65-0.74,1.16-1.3,1.52
			C240.87,93.24,240.2,93.42,239.42,93.42z M239.42,92.22c0.49,0,0.9-0.13,1.23-0.4c0.33-0.27,0.58-0.64,0.75-1.1
			c0.17-0.47,0.25-1,0.25-1.59v-0.17c0-0.59-0.08-1.12-0.25-1.59c-0.17-0.47-0.42-0.83-0.75-1.1c-0.33-0.27-0.75-0.4-1.24-0.4
			c-0.49,0-0.9,0.13-1.23,0.4c-0.33,0.27-0.58,0.64-0.75,1.1c-0.17,0.47-0.25,1-0.25,1.59v0.17c0,0.59,0.08,1.12,0.25,1.59
			c0.17,0.47,0.42,0.83,0.75,1.1C238.51,92.09,238.93,92.22,239.42,92.22z"/>
		<path class="st2" d="M244.39,93.26v-0.98l1.27-0.22v-6.04l-1.27-0.22v-0.99h2.65l0.11,1.26c0.28-0.45,0.63-0.8,1.06-1.04
			c0.42-0.25,0.91-0.37,1.45-0.37c0.91,0,1.62,0.27,2.12,0.8c0.5,0.53,0.75,1.36,0.75,2.47v4.13l1.27,0.22v0.98h-4.09v-0.98
			l1.27-0.22v-4.1c0-0.74-0.15-1.27-0.44-1.59c-0.29-0.31-0.74-0.47-1.35-0.47c-0.44,0-0.83,0.11-1.18,0.32
			c-0.34,0.21-0.61,0.51-0.82,0.88v4.96l1.27,0.22v0.98H244.39z"/>
		<path class="st2" d="M161.59,112.62c-0.69,0-1.28-0.17-1.77-0.51c-0.49-0.34-0.87-0.82-1.13-1.43c-0.26-0.61-0.39-1.32-0.39-2.13
			v-0.16c0-0.91,0.13-1.7,0.39-2.38c0.26-0.68,0.64-1.21,1.13-1.59c0.49-0.38,1.09-0.57,1.78-0.57c0.5,0,0.94,0.09,1.32,0.28
			c0.38,0.19,0.71,0.45,0.98,0.8v-3.45l-1.27-0.22v-0.99h1.27h1.54v10.98l1.27,0.22v0.98h-2.61l-0.12-1.01
			c-0.28,0.39-0.61,0.68-1.01,0.88S162.11,112.62,161.59,112.62z M161.98,111.37c0.46,0,0.84-0.1,1.16-0.31
			c0.31-0.21,0.57-0.5,0.77-0.88v-3.92c-0.2-0.35-0.46-0.64-0.77-0.84c-0.32-0.21-0.7-0.31-1.14-0.31c-0.49,0-0.89,0.14-1.21,0.42
			c-0.32,0.28-0.55,0.66-0.71,1.16s-0.23,1.06-0.23,1.71v0.16c0,0.85,0.17,1.53,0.52,2.05
			C160.71,111.12,161.25,111.37,161.98,111.37z"/>
		<path class="st2" d="M171.5,112.62c-0.92,0-1.63-0.29-2.15-0.88c-0.52-0.59-0.77-1.5-0.77-2.75v-3.77l-0.97-0.22v-0.99h0.97h1.54
			v5c0,0.9,0.13,1.52,0.4,1.86c0.27,0.34,0.68,0.51,1.24,0.51c0.55,0,1-0.11,1.36-0.33c0.36-0.22,0.63-0.54,0.81-0.94v-4.88
			l-1.13-0.22v-0.99h1.13h1.54v7.25l0.97,0.22v0.98h-2.35l-0.1-1.25c-0.27,0.45-0.61,0.8-1.03,1.05
			C172.53,112.5,172.05,112.62,171.5,112.62z"/>
		<path class="st2" d="M185.31,112.62c-0.77,0-1.43-0.18-2-0.54c-0.57-0.36-1.01-0.85-1.32-1.49c-0.31-0.64-0.47-1.37-0.47-2.2
			v-0.33c0-0.8,0.15-1.52,0.45-2.16c0.3-0.64,0.74-1.14,1.3-1.51c0.57-0.37,1.24-0.55,2.03-0.55c0.68,0,1.28,0.11,1.79,0.34
			c0.51,0.22,0.94,0.53,1.29,0.92l0.04,2.03h-1.2l-0.27-1.48c-0.18-0.18-0.4-0.33-0.66-0.44s-0.58-0.16-0.94-0.16
			c-0.46,0-0.86,0.14-1.21,0.41c-0.35,0.27-0.62,0.63-0.81,1.09c-0.19,0.45-0.29,0.96-0.29,1.52v0.33c0,0.61,0.09,1.15,0.27,1.6
			s0.44,0.8,0.77,1.05c0.34,0.25,0.74,0.37,1.2,0.37c0.52,0,0.95-0.14,1.3-0.43c0.34-0.29,0.55-0.68,0.63-1.18h1.38l0.02,0.05
			c-0.03,0.48-0.17,0.94-0.43,1.36c-0.26,0.42-0.63,0.76-1.11,1.02C186.6,112.49,186.01,112.62,185.31,112.62z"/>
		<path class="st2" d="M193.84,112.62c-0.78,0-1.45-0.18-2.02-0.55c-0.57-0.37-1-0.88-1.31-1.52c-0.31-0.65-0.46-1.39-0.46-2.22
			v-0.17c0-0.83,0.15-1.57,0.46-2.22c0.31-0.65,0.74-1.16,1.31-1.53c0.56-0.37,1.23-0.55,2-0.55c0.78,0,1.45,0.19,2.02,0.55
			c0.56,0.37,1,0.88,1.31,1.52c0.31,0.65,0.46,1.39,0.46,2.23v0.17c0,0.84-0.15,1.58-0.46,2.23c-0.31,0.65-0.74,1.16-1.3,1.52
			C195.28,112.44,194.61,112.62,193.84,112.62z M193.84,111.42c0.49,0,0.9-0.13,1.23-0.4c0.33-0.27,0.58-0.64,0.75-1.1
			c0.17-0.47,0.25-1,0.25-1.59v-0.17c0-0.59-0.08-1.12-0.25-1.59c-0.17-0.47-0.42-0.83-0.75-1.1c-0.33-0.27-0.75-0.4-1.24-0.4
			c-0.49,0-0.9,0.13-1.23,0.4c-0.33,0.27-0.58,0.64-0.75,1.1c-0.17,0.47-0.25,1-0.25,1.59v0.17c0,0.59,0.08,1.12,0.25,1.59
			c0.17,0.47,0.42,0.83,0.75,1.1C192.93,111.29,193.34,111.42,193.84,111.42z"/>
		<path class="st2" d="M198.8,112.46v-0.98l1.27-0.22v-6.04L198.8,105v-0.99h2.66l0.1,1.1c0.27-0.4,0.62-0.71,1.05-0.93
			c0.43-0.22,0.92-0.33,1.48-0.33s1.05,0.13,1.45,0.39c0.4,0.26,0.71,0.65,0.91,1.17c0.27-0.48,0.62-0.86,1.05-1.14
			s0.95-0.42,1.53-0.42c0.86,0,1.55,0.3,2.05,0.89c0.5,0.59,0.75,1.48,0.75,2.67v3.85l1.27,0.22v0.98h-4.09v-0.98l1.27-0.22v-3.87
			c0-0.83-0.14-1.42-0.43-1.77c-0.29-0.35-0.71-0.52-1.27-0.52c-0.54,0-0.97,0.19-1.29,0.57c-0.33,0.38-0.51,0.85-0.57,1.43v4.16
			l1.27,0.22v0.98h-4.09v-0.98l1.27-0.22v-3.87c0-0.79-0.15-1.37-0.44-1.74c-0.29-0.37-0.72-0.55-1.28-0.55
			c-0.47,0-0.85,0.1-1.16,0.29c-0.3,0.19-0.53,0.46-0.7,0.81v5.05l1.27,0.22v0.98H198.8z"/>
		<path class="st2" d="M214.01,115.71v-0.99l1.2-0.22v-9.28l-1.27-0.22v-0.99h2.59l0.14,1.03c0.28-0.39,0.62-0.68,1.03-0.88
			c0.4-0.2,0.87-0.3,1.4-0.3c0.7,0,1.29,0.19,1.79,0.57c0.49,0.38,0.87,0.91,1.13,1.59c0.26,0.68,0.39,1.48,0.39,2.39v0.16
			c0,0.81-0.13,1.52-0.39,2.13c-0.26,0.61-0.64,1.08-1.13,1.43c-0.49,0.34-1.08,0.51-1.77,0.51c-0.52,0-0.98-0.09-1.37-0.26
			c-0.39-0.17-0.73-0.43-1-0.78v2.91l1.34,0.22v0.99H214.01z M218.64,111.42c0.73,0,1.28-0.27,1.66-0.8s0.56-1.22,0.56-2.07v-0.16
			c0-0.65-0.08-1.21-0.25-1.71c-0.17-0.49-0.42-0.88-0.75-1.16c-0.33-0.28-0.74-0.42-1.24-0.42c-0.44,0-0.81,0.1-1.12,0.3
			c-0.31,0.2-0.57,0.47-0.76,0.81v4.12c0.19,0.35,0.44,0.62,0.75,0.81C217.81,111.33,218.19,111.42,218.64,111.42z"/>
		<path class="st2" d="M226.58,112.59c-0.62,0-1.12-0.18-1.49-0.55s-0.55-0.95-0.55-1.76v-5.13h-1.34v-1.14h1.34v-2.04h1.54v2.04
			h1.84v1.14h-1.84v5.13c0,0.41,0.08,0.71,0.24,0.9c0.16,0.19,0.38,0.29,0.65,0.29c0.18,0,0.39-0.02,0.61-0.05
			c0.22-0.03,0.4-0.06,0.52-0.09l0.21,1.01c-0.22,0.07-0.5,0.13-0.82,0.18C227.17,112.57,226.86,112.59,226.58,112.59z"/>
		<path class="st2" d="M233,112.62c-0.78,0-1.46-0.18-2.04-0.54c-0.58-0.36-1.02-0.85-1.34-1.49c-0.32-0.64-0.47-1.37-0.47-2.2
			v-0.34c0-0.8,0.17-1.52,0.5-2.15c0.33-0.63,0.77-1.13,1.32-1.5c0.55-0.37,1.15-0.55,1.8-0.55c0.76,0,1.4,0.16,1.91,0.47
			c0.51,0.31,0.9,0.75,1.16,1.32c0.26,0.57,0.39,1.23,0.39,2v0.96h-5.48l-0.02,0.04c0.01,0.54,0.11,1.02,0.29,1.44
			c0.18,0.42,0.44,0.75,0.78,0.99c0.34,0.24,0.74,0.36,1.22,0.36c0.52,0,0.98-0.07,1.37-0.22c0.39-0.15,0.73-0.35,1.02-0.61l0.6,1
			c-0.3,0.29-0.7,0.54-1.2,0.74C234.29,112.52,233.69,112.62,233,112.62z M230.78,107.39h3.9v-0.2c0-0.41-0.07-0.77-0.21-1.09
			c-0.14-0.32-0.36-0.57-0.64-0.76c-0.28-0.18-0.64-0.28-1.07-0.28c-0.34,0-0.66,0.1-0.94,0.3c-0.28,0.2-0.51,0.47-0.7,0.82
			c-0.18,0.34-0.3,0.73-0.36,1.17L230.78,107.39z"/>
		<path class="st2" d="M241.14,112.62c-0.92,0-1.63-0.29-2.15-0.88c-0.52-0.59-0.77-1.5-0.77-2.75v-3.77l-0.97-0.22v-0.99h0.97h1.54
			v5c0,0.9,0.13,1.52,0.4,1.86c0.27,0.34,0.68,0.51,1.24,0.51c0.55,0,1-0.11,1.36-0.33c0.36-0.22,0.63-0.54,0.81-0.94v-4.88
			l-1.13-0.22v-0.99h1.13h1.54v7.25l0.97,0.22v0.98h-2.35l-0.1-1.25c-0.27,0.45-0.61,0.8-1.03,1.05
			C242.17,112.5,241.68,112.62,241.14,112.62z"/>
		<path class="st2" d="M247.13,112.46v-0.98l1.27-0.22v-6.04l-1.27-0.22v-0.99h2.65l0.13,1.08l0.02,0.15
			c0.24-0.43,0.54-0.77,0.89-1.02c0.35-0.24,0.75-0.37,1.21-0.37c0.16,0,0.33,0.01,0.5,0.04c0.17,0.03,0.29,0.06,0.36,0.08
			l-0.2,1.43l-1.07-0.06c-0.41-0.03-0.75,0.07-1.02,0.28c-0.28,0.21-0.49,0.49-0.64,0.85v4.79l1.27,0.22v0.98H247.13z"/>
	</g>
	<g>
		<path d="M9.53,93.26v-0.98l1.27-0.22V83.1l-1.27-0.22v-0.99h8.42v2.73h-1.23l-0.17-1.55h-4.2v3.7h4.2v1.21h-4.2v4.12h4.45
			l0.17-1.57h1.23v2.73H9.53z"/>
		<path d="M19.68,93.26v-0.98l1.27-0.22v-6.04l-1.27-0.22v-0.99h2.65l0.11,1.26c0.28-0.45,0.63-0.8,1.06-1.04
			c0.42-0.25,0.91-0.37,1.45-0.37c0.91,0,1.62,0.27,2.12,0.8c0.5,0.53,0.75,1.36,0.75,2.47v4.13l1.27,0.22v0.98H25v-0.98l1.27-0.22
			v-4.1c0-0.74-0.15-1.27-0.44-1.59c-0.29-0.31-0.74-0.47-1.35-0.47c-0.44,0-0.83,0.11-1.18,0.32c-0.34,0.21-0.61,0.51-0.82,0.88
			v4.96l1.27,0.22v0.98H19.68z"/>
		<path d="M32.84,93.39c-0.62,0-1.12-0.18-1.49-0.55s-0.55-0.95-0.55-1.76v-5.13h-1.34v-1.14h1.34v-2.04h1.54v2.04h1.84v1.14h-1.84
			v5.13c0,0.41,0.08,0.71,0.24,0.9c0.16,0.19,0.38,0.29,0.65,0.29c0.18,0,0.38-0.02,0.61-0.05c0.22-0.03,0.4-0.06,0.52-0.09
			l0.21,1.01c-0.22,0.07-0.5,0.13-0.82,0.18C33.43,93.37,33.12,93.39,32.84,93.39z"/>
		<path d="M35.55,93.26v-0.98l1.27-0.22v-6.04l-1.27-0.22v-0.99h2.65l0.13,1.08l0.02,0.15c0.24-0.43,0.54-0.77,0.89-1.02
			c0.35-0.24,0.75-0.37,1.21-0.37c0.16,0,0.33,0.01,0.5,0.04c0.17,0.03,0.29,0.06,0.36,0.08l-0.2,1.43l-1.07-0.06
			c-0.41-0.03-0.75,0.07-1.02,0.28c-0.28,0.21-0.49,0.49-0.64,0.85v4.79l1.27,0.22v0.98H35.55z"/>
		<path d="M45.94,93.42c-0.78,0-1.46-0.18-2.04-0.54c-0.58-0.36-1.03-0.85-1.34-1.49c-0.32-0.64-0.47-1.37-0.47-2.2v-0.34
			c0-0.8,0.17-1.52,0.5-2.15c0.33-0.63,0.77-1.13,1.32-1.5c0.55-0.37,1.15-0.55,1.8-0.55c0.76,0,1.4,0.16,1.91,0.47
			c0.51,0.31,0.9,0.75,1.16,1.32c0.26,0.57,0.39,1.23,0.39,2v0.96h-5.48l-0.02,0.04c0.01,0.54,0.11,1.02,0.29,1.44
			c0.18,0.42,0.44,0.75,0.78,0.99c0.34,0.24,0.74,0.36,1.22,0.36c0.52,0,0.98-0.07,1.37-0.22c0.39-0.15,0.73-0.35,1.02-0.61l0.6,1
			c-0.3,0.29-0.7,0.54-1.2,0.74C47.23,93.32,46.63,93.42,45.94,93.42z M43.73,88.19h3.9v-0.2c0-0.41-0.07-0.77-0.21-1.09
			c-0.14-0.32-0.36-0.57-0.64-0.76c-0.28-0.18-0.64-0.28-1.07-0.28c-0.34,0-0.66,0.1-0.94,0.3c-0.28,0.2-0.51,0.47-0.7,0.82
			c-0.18,0.34-0.3,0.73-0.36,1.17L43.73,88.19z M44.75,83.2l1.44-2.12h1.8L48,81.12l-2.1,2.08h-1.08H44.75z"/>
		<path d="M54.45,93.42c-0.78,0-1.46-0.18-2.04-0.54c-0.58-0.36-1.03-0.85-1.34-1.49c-0.32-0.64-0.47-1.37-0.47-2.2v-0.34
			c0-0.8,0.17-1.52,0.5-2.15c0.33-0.63,0.77-1.13,1.32-1.5c0.55-0.37,1.15-0.55,1.8-0.55c0.76,0,1.4,0.16,1.91,0.47
			c0.51,0.31,0.9,0.75,1.16,1.32c0.26,0.57,0.39,1.23,0.39,2v0.96h-5.48l-0.02,0.04c0.01,0.54,0.11,1.02,0.29,1.44
			c0.18,0.42,0.44,0.75,0.78,0.99c0.34,0.24,0.74,0.36,1.22,0.36c0.52,0,0.98-0.07,1.37-0.22c0.39-0.15,0.73-0.35,1.02-0.61l0.6,1
			c-0.3,0.29-0.7,0.54-1.2,0.74C55.74,93.32,55.14,93.42,54.45,93.42z M52.23,88.19h3.9v-0.2c0-0.41-0.07-0.77-0.21-1.09
			c-0.14-0.32-0.36-0.57-0.64-0.76c-0.28-0.18-0.64-0.28-1.07-0.28c-0.34,0-0.66,0.1-0.94,0.3c-0.28,0.2-0.51,0.47-0.7,0.82
			c-0.18,0.34-0.3,0.73-0.36,1.17L52.23,88.19z"/>
		<path d="M66.16,93.42c-0.69,0-1.28-0.17-1.77-0.51c-0.49-0.34-0.87-0.82-1.13-1.43c-0.26-0.61-0.39-1.32-0.39-2.13v-0.16
			c0-0.91,0.13-1.7,0.39-2.38c0.26-0.68,0.64-1.21,1.13-1.59c0.49-0.38,1.09-0.57,1.78-0.57c0.5,0,0.94,0.09,1.32,0.28
			c0.38,0.19,0.71,0.45,0.98,0.8v-3.45l-1.27-0.22v-0.99h1.27h1.54v10.98l1.27,0.22v0.98h-2.61l-0.12-1.01
			c-0.28,0.39-0.61,0.68-1.01,0.88S66.69,93.42,66.16,93.42z M66.55,92.17c0.46,0,0.84-0.1,1.16-0.31c0.31-0.21,0.57-0.5,0.77-0.88
			v-3.92c-0.2-0.35-0.46-0.64-0.77-0.84c-0.32-0.21-0.7-0.31-1.14-0.31c-0.49,0-0.89,0.14-1.21,0.42c-0.32,0.28-0.55,0.66-0.71,1.16
			s-0.23,1.06-0.23,1.71v0.16c0,0.85,0.17,1.53,0.52,2.05C65.29,91.92,65.83,92.17,66.55,92.17z"/>
		<path d="M75.09,93.42c-0.88,0-1.55-0.21-2.01-0.64c-0.46-0.43-0.69-1.04-0.69-1.82c0-0.54,0.15-1,0.44-1.4
			c0.29-0.4,0.72-0.71,1.28-0.93c0.56-0.22,1.22-0.33,2-0.33h1.51v-0.83c0-0.51-0.16-0.91-0.46-1.19c-0.31-0.28-0.75-0.42-1.31-0.42
			c-0.35,0-0.66,0.04-0.92,0.13c-0.26,0.09-0.5,0.2-0.71,0.36l-0.16,1.18h-1.19v-1.94c0.38-0.31,0.82-0.54,1.33-0.7
			c0.5-0.16,1.06-0.24,1.68-0.24c1.03,0,1.83,0.25,2.41,0.73c0.58,0.49,0.88,1.19,0.88,2.1v4.07c0,0.11,0,0.22,0,0.32
			c0,0.1,0.01,0.21,0.02,0.31l0.82,0.09v0.98H77.8c-0.05-0.23-0.08-0.43-0.11-0.62c-0.03-0.18-0.04-0.36-0.05-0.55
			c-0.3,0.38-0.67,0.7-1.11,0.95S75.6,93.42,75.09,93.42z M75.32,92.13c0.51,0,0.98-0.12,1.4-0.37c0.42-0.24,0.72-0.54,0.91-0.88
			v-1.53h-1.56c-0.71,0-1.24,0.17-1.59,0.51c-0.35,0.34-0.53,0.72-0.53,1.13c0,0.37,0.11,0.65,0.34,0.85
			C74.51,92.04,74.86,92.13,75.32,92.13z"/>
		<path d="M81.2,93.26v-0.98l1.27-0.22v-6.04L81.2,85.8v-0.99h2.65l0.11,1.26c0.28-0.45,0.63-0.8,1.06-1.04
			c0.42-0.25,0.91-0.37,1.45-0.37c0.91,0,1.62,0.27,2.12,0.8c0.5,0.53,0.75,1.36,0.75,2.47v4.13l1.27,0.22v0.98h-4.09v-0.98
			l1.27-0.22v-4.1c0-0.74-0.15-1.27-0.44-1.59c-0.29-0.31-0.74-0.47-1.35-0.47c-0.44,0-0.83,0.11-1.18,0.32
			c-0.34,0.21-0.61,0.51-0.82,0.88v4.96l1.27,0.22v0.98H81.2z"/>
		<path d="M95.12,93.42c-0.57,0-1.1-0.06-1.59-0.17c-0.5-0.11-1.02-0.29-1.58-0.53l-0.02-2.01h1.16l0.29,1.21
			c0.29,0.12,0.57,0.21,0.85,0.26s0.57,0.08,0.89,0.08c0.62,0,1.07-0.12,1.34-0.36c0.27-0.24,0.41-0.54,0.41-0.89
			c0-0.33-0.14-0.62-0.41-0.85c-0.27-0.23-0.77-0.43-1.49-0.59c-1.02-0.23-1.77-0.55-2.25-0.94c-0.48-0.39-0.72-0.92-0.72-1.57
			c0-0.46,0.13-0.87,0.4-1.23c0.27-0.36,0.63-0.65,1.11-0.86c0.47-0.21,1.03-0.32,1.66-0.32c0.64,0,1.19,0.07,1.64,0.22
			c0.46,0.15,0.85,0.34,1.19,0.59l0.08,1.93h-1.16l-0.25-1.12c-0.18-0.14-0.4-0.24-0.65-0.31c-0.25-0.07-0.54-0.11-0.86-0.11
			c-0.48,0-0.87,0.11-1.17,0.34c-0.3,0.22-0.45,0.51-0.45,0.84c0,0.2,0.04,0.37,0.13,0.52c0.09,0.15,0.25,0.28,0.5,0.39
			c0.24,0.12,0.6,0.23,1.08,0.35c1.18,0.28,2,0.63,2.46,1.05c0.47,0.43,0.7,0.95,0.7,1.58c0,0.71-0.26,1.31-0.79,1.79
			C97.08,93.18,96.25,93.42,95.12,93.42z"/>
		<path d="M20.88,112.46v-0.98l1.27-0.22v-9.77l-1.27-0.22v-0.99h2.81v10.98l1.27,0.22v0.98H20.88z"/>
		<path d="M28.79,112.62c-0.88,0-1.55-0.21-2.01-0.64c-0.46-0.43-0.69-1.04-0.69-1.82c0-0.54,0.15-1,0.44-1.4
			c0.29-0.4,0.72-0.71,1.28-0.93c0.56-0.22,1.22-0.33,2-0.33h1.51v-0.83c0-0.51-0.16-0.91-0.46-1.19c-0.31-0.28-0.75-0.42-1.31-0.42
			c-0.35,0-0.66,0.04-0.92,0.13c-0.26,0.09-0.5,0.2-0.71,0.36l-0.16,1.18h-1.19v-1.94c0.38-0.31,0.82-0.54,1.33-0.7
			c0.5-0.16,1.06-0.24,1.68-0.24c1.03,0,1.83,0.25,2.41,0.73c0.58,0.49,0.88,1.19,0.88,2.1v4.07c0,0.11,0,0.22,0,0.32
			c0,0.1,0.01,0.21,0.02,0.31l0.82,0.09v0.98H31.5c-0.05-0.23-0.08-0.43-0.11-0.62c-0.03-0.18-0.04-0.36-0.05-0.55
			c-0.3,0.38-0.67,0.7-1.11,0.95S29.3,112.62,28.79,112.62z M29.02,111.33c0.51,0,0.98-0.12,1.4-0.37c0.42-0.24,0.72-0.54,0.91-0.88
			v-1.53h-1.56c-0.71,0-1.24,0.17-1.59,0.51c-0.35,0.34-0.53,0.72-0.53,1.13c0,0.37,0.11,0.65,0.34,0.85
			C28.21,111.24,28.56,111.33,29.02,111.33z"/>
		<path d="M43.37,112.62c-0.55,0-1.03-0.11-1.44-0.32s-0.75-0.52-1.02-0.93l-0.14,1.09h-1.33v-10.98l-1.27-0.22v-0.99h2.81v4.73
			c0.27-0.38,0.59-0.66,0.99-0.86c0.39-0.2,0.85-0.3,1.38-0.3c0.7,0,1.29,0.19,1.79,0.57c0.49,0.38,0.87,0.91,1.13,1.59
			c0.26,0.68,0.39,1.48,0.39,2.38v0.16c0,0.81-0.13,1.52-0.39,2.13c-0.26,0.61-0.64,1.08-1.13,1.43
			C44.65,112.45,44.06,112.62,43.37,112.62z M42.98,111.37c0.72,0,1.26-0.26,1.61-0.77s0.53-1.2,0.53-2.05v-0.16
			c0-0.65-0.08-1.22-0.23-1.71s-0.39-0.88-0.71-1.16c-0.32-0.28-0.72-0.42-1.21-0.42c-0.47,0-0.87,0.11-1.2,0.34
			c-0.33,0.23-0.58,0.54-0.78,0.92v3.73c0.19,0.39,0.45,0.7,0.79,0.93C42.1,111.26,42.51,111.37,42.98,111.37z"/>
		<path d="M51.96,112.62c-0.78,0-1.46-0.18-2.02-0.55c-0.57-0.37-1-0.88-1.31-1.52c-0.31-0.65-0.46-1.39-0.46-2.22v-0.17
			c0-0.83,0.15-1.57,0.46-2.22c0.31-0.65,0.74-1.16,1.31-1.53c0.56-0.37,1.23-0.55,2-0.55c0.78,0,1.45,0.19,2.02,0.55
			c0.56,0.37,1,0.88,1.31,1.52c0.31,0.65,0.46,1.39,0.46,2.23v0.17c0,0.84-0.15,1.58-0.46,2.23c-0.31,0.65-0.74,1.16-1.3,1.52
			C53.4,112.44,52.73,112.62,51.96,112.62z M51.96,111.42c0.49,0,0.9-0.13,1.23-0.4c0.33-0.27,0.58-0.64,0.75-1.1
			c0.17-0.47,0.25-1,0.25-1.59v-0.17c0-0.59-0.08-1.12-0.25-1.59c-0.17-0.47-0.42-0.83-0.75-1.1c-0.33-0.27-0.75-0.4-1.24-0.4
			c-0.49,0-0.9,0.13-1.23,0.4c-0.33,0.27-0.58,0.64-0.75,1.1c-0.17,0.47-0.25,1-0.25,1.59v0.17c0,0.59,0.08,1.12,0.25,1.59
			c0.17,0.47,0.42,0.83,0.75,1.1C51.05,111.29,51.46,111.42,51.96,111.42z"/>
		<path d="M60.64,112.62c-0.92,0-1.63-0.29-2.15-0.88c-0.52-0.59-0.77-1.5-0.77-2.75v-3.77L56.75,105v-0.99h0.97h1.54v5
			c0,0.9,0.13,1.52,0.4,1.86c0.27,0.34,0.68,0.51,1.24,0.51c0.55,0,1-0.11,1.36-0.33c0.36-0.22,0.63-0.54,0.81-0.94v-4.88L61.93,105
			v-0.99h1.13h1.54v7.25l0.97,0.22v0.98h-2.35l-0.1-1.25c-0.27,0.45-0.61,0.8-1.03,1.05C61.67,112.5,61.18,112.62,60.64,112.62z"/>
		<path d="M70.46,112.62c-0.77,0-1.43-0.18-2-0.54c-0.57-0.36-1.01-0.85-1.32-1.49c-0.31-0.64-0.47-1.37-0.47-2.2v-0.33
			c0-0.8,0.15-1.52,0.45-2.16c0.3-0.64,0.74-1.14,1.3-1.51c0.57-0.37,1.24-0.55,2.03-0.55c0.68,0,1.28,0.11,1.79,0.34
			c0.51,0.22,0.94,0.53,1.29,0.92l0.04,2.03h-1.2l-0.27-1.48c-0.18-0.18-0.4-0.33-0.66-0.44s-0.58-0.16-0.94-0.16
			c-0.46,0-0.86,0.14-1.21,0.41c-0.35,0.27-0.62,0.63-0.81,1.09c-0.19,0.45-0.29,0.96-0.29,1.52v0.33c0,0.61,0.09,1.15,0.27,1.6
			s0.44,0.8,0.77,1.05c0.34,0.25,0.74,0.37,1.2,0.37c0.52,0,0.95-0.14,1.3-0.43c0.34-0.29,0.55-0.68,0.63-1.18h1.38l0.02,0.05
			c-0.03,0.48-0.17,0.94-0.43,1.36c-0.26,0.42-0.63,0.76-1.11,1.02C71.76,112.49,71.17,112.62,70.46,112.62z"/>
		<path d="M74.9,112.46v-0.98l1.27-0.22v-9.77l-1.27-0.22v-0.99h2.81v10.98l1.27,0.22v0.98H74.9z"/>
		<path d="M83.78,112.62c-0.78,0-1.46-0.18-2.04-0.54c-0.58-0.36-1.03-0.85-1.34-1.49c-0.32-0.64-0.47-1.37-0.47-2.2v-0.34
			c0-0.8,0.17-1.52,0.5-2.15c0.33-0.63,0.77-1.13,1.32-1.5c0.55-0.37,1.15-0.55,1.8-0.55c0.76,0,1.4,0.16,1.91,0.47
			c0.51,0.31,0.9,0.75,1.16,1.32c0.26,0.57,0.39,1.23,0.39,2v0.96h-5.48l-0.02,0.04c0.01,0.54,0.11,1.02,0.29,1.44
			c0.18,0.42,0.44,0.75,0.78,0.99c0.34,0.24,0.74,0.36,1.22,0.36c0.52,0,0.98-0.07,1.37-0.22c0.39-0.15,0.73-0.35,1.02-0.61l0.6,1
			c-0.3,0.29-0.7,0.54-1.2,0.74C85.07,112.52,84.47,112.62,83.78,112.62z M81.57,107.39h3.9v-0.2c0-0.41-0.07-0.77-0.21-1.09
			c-0.14-0.32-0.36-0.57-0.64-0.76c-0.28-0.18-0.64-0.28-1.07-0.28c-0.34,0-0.66,0.1-0.94,0.3c-0.28,0.2-0.51,0.47-0.7,0.82
			c-0.18,0.34-0.3,0.73-0.36,1.17L81.57,107.39z"/>
	</g>
	<g>
		<path class="st2" d="M362.25,86.42v-0.98l1.27-0.22v-8.96l-1.27-0.22v-0.99h8.42v2.73h-1.23l-0.17-1.55h-4.2v3.7h4.2v1.21h-4.2
			v4.12h4.45l0.17-1.57h1.23v2.73H362.25z"/>
		<path class="st2" d="M375.82,86.59c-0.57,0-1.1-0.06-1.59-0.17c-0.5-0.11-1.02-0.29-1.58-0.53l-0.02-2.01h1.16l0.29,1.21
			c0.29,0.12,0.57,0.21,0.85,0.26s0.57,0.08,0.89,0.08c0.62,0,1.07-0.12,1.34-0.36c0.27-0.24,0.41-0.54,0.41-0.89
			c0-0.33-0.14-0.62-0.41-0.85c-0.27-0.23-0.77-0.43-1.49-0.59c-1.02-0.23-1.77-0.55-2.25-0.94c-0.48-0.39-0.72-0.92-0.72-1.57
			c0-0.46,0.13-0.87,0.4-1.23c0.27-0.36,0.64-0.65,1.11-0.86c0.47-0.21,1.03-0.32,1.66-0.32c0.64,0,1.19,0.07,1.64,0.22
			c0.46,0.15,0.85,0.34,1.19,0.59l0.08,1.93h-1.16l-0.25-1.12c-0.18-0.14-0.4-0.24-0.65-0.31c-0.25-0.07-0.54-0.11-0.86-0.11
			c-0.48,0-0.87,0.11-1.17,0.34c-0.3,0.22-0.45,0.51-0.45,0.84c0,0.2,0.04,0.37,0.13,0.52c0.09,0.15,0.25,0.28,0.5,0.39
			c0.24,0.12,0.6,0.23,1.08,0.35c1.18,0.28,2,0.63,2.46,1.05c0.47,0.43,0.7,0.95,0.7,1.58c0,0.71-0.26,1.31-0.79,1.79
			C377.79,86.35,376.95,86.59,375.82,86.59z"/>
		<path class="st2" d="M383.37,86.56c-0.62,0-1.12-0.18-1.49-0.55s-0.55-0.95-0.55-1.76v-5.13h-1.34v-1.14h1.34v-2.04h1.54v2.04
			h1.84v1.14h-1.84v5.13c0,0.41,0.08,0.71,0.24,0.9c0.16,0.19,0.38,0.29,0.65,0.29c0.18,0,0.39-0.02,0.61-0.05
			c0.22-0.03,0.4-0.06,0.52-0.09l0.21,1.01c-0.22,0.07-0.5,0.13-0.82,0.18C383.95,86.53,383.65,86.56,383.37,86.56z"/>
		<path class="st2" d="M386.71,82.22v-1.2h3.82v1.2H386.71z"/>
		<path class="st2" d="M396.13,86.59c-0.77,0-1.43-0.18-2-0.54c-0.57-0.36-1.01-0.85-1.32-1.49c-0.31-0.64-0.47-1.37-0.47-2.2v-0.33
			c0-0.8,0.15-1.52,0.45-2.16c0.3-0.64,0.74-1.14,1.3-1.51c0.57-0.37,1.25-0.55,2.03-0.55c0.68,0,1.28,0.11,1.79,0.34
			c0.51,0.22,0.94,0.53,1.29,0.92l0.04,2.03h-1.2l-0.27-1.48c-0.18-0.18-0.4-0.33-0.66-0.44s-0.58-0.16-0.94-0.16
			c-0.46,0-0.86,0.14-1.21,0.41c-0.35,0.27-0.62,0.63-0.81,1.09s-0.29,0.96-0.29,1.52v0.33c0,0.61,0.09,1.15,0.27,1.6
			s0.44,0.8,0.77,1.05c0.34,0.25,0.74,0.37,1.2,0.37c0.52,0,0.95-0.14,1.3-0.43c0.34-0.29,0.55-0.68,0.63-1.18h1.38l0.02,0.05
			c-0.03,0.48-0.17,0.94-0.43,1.36s-0.63,0.76-1.11,1.02S396.83,86.59,396.13,86.59z"/>
		<path class="st2" d="M404.69,86.59c-0.78,0-1.46-0.18-2.04-0.54c-0.58-0.36-1.02-0.85-1.34-1.49c-0.32-0.64-0.47-1.37-0.47-2.2
			v-0.34c0-0.8,0.17-1.52,0.5-2.15s0.77-1.13,1.32-1.5s1.15-0.55,1.8-0.55c0.76,0,1.4,0.16,1.91,0.47s0.9,0.75,1.16,1.32
			c0.26,0.57,0.39,1.23,0.39,2v0.96h-5.48l-0.02,0.04c0.01,0.54,0.11,1.02,0.29,1.44c0.18,0.42,0.44,0.75,0.78,0.99
			c0.34,0.24,0.75,0.36,1.22,0.36c0.52,0,0.98-0.07,1.37-0.22s0.73-0.35,1.02-0.61l0.6,1c-0.3,0.29-0.7,0.54-1.2,0.74
			S405.39,86.59,404.69,86.59z M402.48,81.35h3.9v-0.2c0-0.41-0.07-0.77-0.21-1.09s-0.36-0.57-0.64-0.76
			c-0.28-0.18-0.64-0.28-1.07-0.28c-0.34,0-0.66,0.1-0.94,0.3c-0.28,0.2-0.51,0.47-0.7,0.82s-0.3,0.73-0.36,1.17L402.48,81.35z"/>
		<path class="st2" d="M417.37,89.67v-0.99l1.27-0.22v-2.84c-0.27,0.32-0.59,0.56-0.96,0.72s-0.8,0.24-1.27,0.24
			c-0.69,0-1.28-0.17-1.77-0.51c-0.49-0.34-0.87-0.82-1.13-1.43s-0.39-1.32-0.39-2.13v-0.16c0-0.91,0.13-1.7,0.39-2.38
			c0.26-0.68,0.64-1.21,1.13-1.59c0.5-0.38,1.09-0.57,1.78-0.57c0.5,0,0.93,0.09,1.32,0.28c0.39,0.19,0.71,0.45,0.98,0.81l0.12-0.93
			h1.33v10.49l1.2,0.22v0.99H417.37z M416.8,85.38c0.43,0,0.79-0.09,1.09-0.28s0.55-0.45,0.75-0.8v-4.24
			c-0.2-0.32-0.46-0.57-0.76-0.76s-0.66-0.28-1.07-0.28c-0.49,0-0.89,0.14-1.21,0.43c-0.32,0.28-0.55,0.68-0.71,1.18
			s-0.23,1.08-0.23,1.73v0.16c0,0.85,0.17,1.55,0.52,2.07C415.54,85.12,416.07,85.38,416.8,85.38z"/>
		<path class="st2" d="M425.71,86.59c-0.92,0-1.63-0.29-2.15-0.88c-0.52-0.59-0.77-1.5-0.77-2.75v-3.77l-0.97-0.22v-0.99h0.97h1.54
			v5c0,0.9,0.13,1.52,0.4,1.86c0.27,0.34,0.68,0.51,1.24,0.51c0.55,0,1-0.11,1.36-0.33c0.36-0.22,0.63-0.54,0.81-0.94v-4.88
			L427,78.96v-0.99h1.13h1.54v7.25l0.97,0.22v0.98h-2.35l-0.1-1.25c-0.27,0.45-0.61,0.8-1.03,1.05S426.26,86.59,425.71,86.59z"/>
		<path class="st2" d="M435.57,86.59c-0.78,0-1.46-0.18-2.04-0.54c-0.58-0.36-1.02-0.85-1.34-1.49c-0.32-0.64-0.47-1.37-0.47-2.2
			v-0.34c0-0.8,0.17-1.52,0.5-2.15s0.77-1.13,1.32-1.5s1.15-0.55,1.8-0.55c0.76,0,1.4,0.16,1.91,0.47s0.9,0.75,1.16,1.32
			c0.26,0.57,0.39,1.23,0.39,2v0.96h-5.48l-0.02,0.04c0.01,0.54,0.11,1.02,0.29,1.44c0.18,0.42,0.44,0.75,0.78,0.99
			c0.34,0.24,0.75,0.36,1.22,0.36c0.52,0,0.98-0.07,1.37-0.22s0.73-0.35,1.02-0.61l0.6,1c-0.3,0.29-0.7,0.54-1.2,0.74
			S436.27,86.59,435.57,86.59z M433.36,81.35h3.9v-0.2c0-0.41-0.07-0.77-0.21-1.09s-0.36-0.57-0.64-0.76
			c-0.28-0.18-0.64-0.28-1.07-0.28c-0.34,0-0.66,0.1-0.94,0.3c-0.28,0.2-0.51,0.47-0.7,0.82s-0.3,0.73-0.36,1.17L433.36,81.35z"/>
		<path class="st2" d="M443.89,86.42v-0.98l1.27-0.22v-9.77l-1.27-0.22v-0.99h2.81v10.98l1.27,0.22v0.98H443.89z"/>
		<path class="st2" d="M451.8,86.59c-0.88,0-1.55-0.21-2.01-0.64s-0.69-1.04-0.69-1.82c0-0.54,0.15-1,0.44-1.4s0.72-0.71,1.28-0.93
			c0.56-0.22,1.22-0.33,2-0.33h1.51v-0.83c0-0.51-0.16-0.91-0.46-1.19s-0.75-0.42-1.31-0.42c-0.35,0-0.66,0.04-0.92,0.13
			s-0.5,0.2-0.71,0.36l-0.16,1.18h-1.19v-1.94c0.38-0.31,0.82-0.54,1.33-0.7c0.5-0.16,1.07-0.24,1.68-0.24
			c1.03,0,1.83,0.25,2.41,0.73c0.58,0.49,0.88,1.19,0.88,2.1v4.07c0,0.11,0,0.22,0,0.32c0,0.1,0.01,0.21,0.02,0.31l0.82,0.09v0.98
			h-2.21c-0.05-0.23-0.08-0.43-0.11-0.62c-0.03-0.18-0.04-0.36-0.05-0.55c-0.3,0.38-0.67,0.7-1.11,0.95S452.31,86.59,451.8,86.59z
			 M452.03,85.3c0.51,0,0.98-0.12,1.4-0.37c0.42-0.24,0.72-0.54,0.91-0.88v-1.53h-1.56c-0.71,0-1.24,0.17-1.59,0.51
			c-0.35,0.34-0.53,0.72-0.53,1.13c0,0.37,0.11,0.65,0.34,0.85S451.57,85.3,452.03,85.3z"/>
		<path class="st2" d="M364.68,105.79c-0.77,0-1.43-0.18-2-0.54c-0.57-0.36-1.01-0.85-1.32-1.49c-0.31-0.64-0.47-1.37-0.47-2.2
			v-0.33c0-0.8,0.15-1.52,0.45-2.16c0.3-0.64,0.74-1.14,1.3-1.51c0.57-0.37,1.24-0.55,2.03-0.55c0.68,0,1.28,0.11,1.79,0.34
			c0.51,0.22,0.94,0.53,1.29,0.92l0.04,2.03h-1.2l-0.27-1.48c-0.18-0.18-0.4-0.33-0.66-0.44s-0.58-0.16-0.94-0.16
			c-0.46,0-0.86,0.14-1.21,0.41c-0.35,0.27-0.62,0.63-0.81,1.09c-0.19,0.45-0.29,0.96-0.29,1.52v0.33c0,0.61,0.09,1.15,0.27,1.6
			s0.44,0.8,0.77,1.05c0.34,0.25,0.74,0.37,1.2,0.37c0.52,0,0.95-0.14,1.3-0.43c0.34-0.29,0.55-0.68,0.63-1.18h1.38l0.02,0.05
			c-0.03,0.48-0.17,0.94-0.43,1.36c-0.26,0.42-0.63,0.76-1.11,1.02C365.98,105.66,365.39,105.79,364.68,105.79z"/>
		<path class="st2" d="M373.21,105.79c-0.78,0-1.45-0.18-2.02-0.55c-0.57-0.37-1-0.88-1.31-1.52c-0.31-0.65-0.46-1.39-0.46-2.22
			v-0.17c0-0.83,0.15-1.57,0.46-2.22c0.31-0.65,0.74-1.16,1.31-1.53c0.56-0.37,1.23-0.55,2-0.55c0.78,0,1.45,0.19,2.02,0.55
			c0.56,0.37,1,0.88,1.31,1.52c0.31,0.65,0.46,1.39,0.46,2.23v0.17c0,0.84-0.15,1.58-0.46,2.23c-0.31,0.65-0.74,1.16-1.3,1.52
			C374.66,105.6,373.99,105.79,373.21,105.79z M373.21,104.58c0.49,0,0.9-0.13,1.23-0.4c0.33-0.27,0.58-0.64,0.75-1.1
			c0.17-0.47,0.25-1,0.25-1.59v-0.17c0-0.59-0.08-1.12-0.25-1.59c-0.17-0.47-0.42-0.83-0.75-1.1c-0.33-0.27-0.75-0.4-1.24-0.4
			c-0.49,0-0.9,0.13-1.23,0.4c-0.33,0.27-0.58,0.64-0.75,1.1c-0.17,0.47-0.25,1-0.25,1.59v0.17c0,0.59,0.08,1.12,0.25,1.59
			c0.17,0.47,0.42,0.83,0.75,1.1C372.3,104.45,372.72,104.58,373.21,104.58z"/>
		<path class="st2" d="M378.17,105.62v-0.98l1.27-0.22v-6.04l-1.27-0.22v-0.99h2.65l0.11,1.26c0.28-0.45,0.63-0.8,1.06-1.04
			c0.42-0.25,0.91-0.37,1.45-0.37c0.91,0,1.62,0.27,2.12,0.8c0.5,0.53,0.75,1.36,0.75,2.47v4.13l1.27,0.22v0.98h-4.09v-0.98
			l1.27-0.22v-4.1c0-0.74-0.15-1.27-0.44-1.59c-0.29-0.31-0.74-0.47-1.35-0.47c-0.44,0-0.83,0.11-1.18,0.32
			c-0.34,0.21-0.61,0.51-0.82,0.88v4.96l1.27,0.22v0.98H378.17z"/>
		<path class="st2" d="M391.91,105.79c-0.69,0-1.28-0.17-1.77-0.51c-0.49-0.34-0.87-0.82-1.13-1.43c-0.26-0.61-0.39-1.32-0.39-2.13
			v-0.16c0-0.91,0.13-1.7,0.39-2.38c0.26-0.68,0.64-1.21,1.13-1.59c0.5-0.38,1.09-0.57,1.78-0.57c0.5,0,0.94,0.09,1.32,0.28
			c0.38,0.19,0.71,0.45,0.98,0.8v-3.45l-1.27-0.22v-0.99h1.27h1.54v10.98l1.27,0.22v0.98h-2.61l-0.12-1.01
			c-0.28,0.39-0.61,0.68-1.01,0.88S392.44,105.79,391.91,105.79z M392.3,104.54c0.46,0,0.84-0.1,1.16-0.31
			c0.31-0.21,0.57-0.5,0.77-0.88v-3.92c-0.2-0.35-0.46-0.64-0.77-0.84c-0.32-0.21-0.7-0.31-1.14-0.31c-0.49,0-0.89,0.14-1.21,0.42
			c-0.32,0.28-0.55,0.66-0.71,1.16s-0.23,1.06-0.23,1.71v0.16c0,0.85,0.17,1.53,0.52,2.05S391.57,104.54,392.3,104.54z"/>
		<path class="st2" d="M398.05,105.62v-0.98l1.27-0.22v-6.04l-1.27-0.22v-0.99h2.81v7.25l1.27,0.22v0.98H398.05z M399.25,95.08
			v-1.65h1.62v1.65H399.25z"/>
		<path class="st2" d="M406.18,105.76c-0.62,0-1.12-0.18-1.49-0.55s-0.55-0.95-0.55-1.76v-5.13h-1.34v-1.14h1.34v-2.04h1.54v2.04
			h1.84v1.14h-1.84v5.13c0,0.41,0.08,0.71,0.24,0.9c0.16,0.19,0.38,0.29,0.65,0.29c0.18,0,0.39-0.02,0.61-0.05
			c0.22-0.03,0.4-0.06,0.52-0.09l0.21,1.01c-0.22,0.07-0.5,0.13-0.82,0.18C406.77,105.73,406.46,105.76,406.18,105.76z"/>
		<path class="st2" d="M408.85,105.62v-0.98l1.27-0.22v-6.04l-1.27-0.22v-0.99h2.81v7.25l1.27,0.22v0.98H408.85z M410.04,95.08
			v-1.65h1.62v1.65H410.04z"/>
		<path class="st2" d="M417.82,105.79c-0.78,0-1.45-0.18-2.02-0.55s-1-0.88-1.31-1.52s-0.46-1.39-0.46-2.22v-0.17
			c0-0.83,0.15-1.57,0.46-2.22s0.74-1.16,1.31-1.53c0.57-0.37,1.23-0.55,2-0.55c0.78,0,1.45,0.19,2.02,0.55
			c0.57,0.37,1,0.88,1.31,1.52c0.31,0.65,0.46,1.39,0.46,2.23v0.17c0,0.84-0.15,1.58-0.46,2.23s-0.74,1.16-1.3,1.52
			C419.26,105.6,418.59,105.79,417.82,105.79z M417.82,104.58c0.49,0,0.9-0.13,1.23-0.4c0.33-0.27,0.58-0.64,0.75-1.1
			c0.17-0.47,0.25-1,0.25-1.59v-0.17c0-0.59-0.08-1.12-0.25-1.59c-0.17-0.47-0.42-0.83-0.75-1.1c-0.33-0.27-0.75-0.4-1.24-0.4
			c-0.49,0-0.9,0.13-1.23,0.4c-0.33,0.27-0.58,0.64-0.75,1.1c-0.17,0.47-0.25,1-0.25,1.59v0.17c0,0.59,0.08,1.12,0.25,1.59
			c0.17,0.47,0.42,0.83,0.75,1.1C416.91,104.45,417.32,104.58,417.82,104.58z"/>
		<path class="st2" d="M422.78,105.62v-0.98l1.27-0.22v-6.04l-1.27-0.22v-0.99h2.65l0.11,1.26c0.28-0.45,0.63-0.8,1.06-1.04
			c0.42-0.25,0.91-0.37,1.45-0.37c0.91,0,1.62,0.27,2.12,0.8c0.5,0.53,0.75,1.36,0.75,2.47v4.13l1.27,0.22v0.98h-4.09v-0.98
			l1.27-0.22v-4.1c0-0.74-0.15-1.27-0.44-1.59s-0.74-0.47-1.35-0.47c-0.44,0-0.83,0.11-1.18,0.32c-0.34,0.21-0.61,0.51-0.82,0.88
			v4.96l1.27,0.22v0.98H422.78z"/>
		<path class="st2" d="M441.1,105.79c-0.78,0-1.46-0.18-2.04-0.54c-0.58-0.36-1.02-0.85-1.34-1.49c-0.32-0.64-0.47-1.37-0.47-2.2
			v-0.34c0-0.8,0.17-1.52,0.5-2.15s0.77-1.13,1.32-1.5s1.15-0.55,1.8-0.55c0.76,0,1.4,0.16,1.91,0.47s0.9,0.75,1.16,1.32
			c0.26,0.57,0.39,1.23,0.39,2v0.96h-5.48l-0.02,0.04c0.01,0.54,0.11,1.02,0.29,1.44c0.18,0.42,0.44,0.75,0.78,0.99
			c0.34,0.24,0.75,0.36,1.22,0.36c0.52,0,0.98-0.07,1.37-0.22s0.73-0.35,1.02-0.61l0.6,1c-0.3,0.29-0.7,0.54-1.2,0.74
			S441.79,105.79,441.1,105.79z M438.89,100.55h3.9v-0.2c0-0.41-0.07-0.77-0.21-1.09s-0.36-0.57-0.64-0.76
			c-0.28-0.18-0.64-0.28-1.07-0.28c-0.34,0-0.66,0.1-0.94,0.3c-0.28,0.2-0.51,0.47-0.7,0.82s-0.3,0.73-0.36,1.17L438.89,100.55z"/>
		<path class="st2" d="M448.98,105.79c-0.57,0-1.1-0.06-1.59-0.17s-1.02-0.29-1.58-0.53l-0.02-2.01h1.16l0.29,1.21
			c0.29,0.12,0.57,0.21,0.85,0.26s0.57,0.08,0.89,0.08c0.62,0,1.07-0.12,1.34-0.36c0.27-0.24,0.41-0.54,0.41-0.89
			c0-0.33-0.14-0.62-0.41-0.85c-0.27-0.23-0.77-0.43-1.49-0.59c-1.02-0.23-1.77-0.55-2.25-0.94c-0.48-0.39-0.72-0.92-0.72-1.57
			c0-0.46,0.13-0.87,0.4-1.23c0.27-0.36,0.64-0.65,1.11-0.86c0.47-0.21,1.03-0.32,1.66-0.32c0.64,0,1.19,0.07,1.64,0.22
			c0.46,0.15,0.85,0.34,1.19,0.59l0.08,1.93h-1.16l-0.25-1.12c-0.18-0.14-0.4-0.24-0.65-0.31c-0.25-0.07-0.54-0.11-0.86-0.11
			c-0.48,0-0.87,0.11-1.17,0.34c-0.3,0.22-0.45,0.51-0.45,0.84c0,0.2,0.04,0.37,0.13,0.52c0.09,0.15,0.25,0.28,0.5,0.39
			s0.6,0.23,1.08,0.35c1.18,0.28,2,0.63,2.46,1.05c0.47,0.43,0.7,0.95,0.7,1.58c0,0.71-0.26,1.31-0.79,1.79
			C450.95,105.55,450.12,105.79,448.98,105.79z"/>
		<path class="st2" d="M456.53,105.76c-0.62,0-1.12-0.18-1.49-0.55s-0.55-0.95-0.55-1.76v-5.13h-1.34v-1.14h1.34v-2.04h1.54v2.04
			h1.84v1.14h-1.84v5.13c0,0.41,0.08,0.71,0.24,0.9c0.16,0.19,0.38,0.29,0.65,0.29c0.18,0,0.39-0.02,0.61-0.05
			c0.22-0.03,0.4-0.06,0.52-0.09l0.21,1.01c-0.22,0.07-0.5,0.13-0.82,0.18C457.11,105.73,456.81,105.76,456.53,105.76z"/>
		<path class="st2" d="M372.36,124.82v-0.98l1.27-0.22v-6.04l-1.27-0.22v-0.99h2.65l0.13,1.08l0.02,0.15
			c0.24-0.43,0.54-0.77,0.89-1.02c0.35-0.24,0.75-0.37,1.21-0.37c0.16,0,0.33,0.01,0.5,0.04c0.17,0.03,0.29,0.06,0.36,0.08
			l-0.2,1.43l-1.07-0.06c-0.41-0.03-0.75,0.07-1.02,0.28c-0.28,0.21-0.49,0.49-0.64,0.85v4.79l1.27,0.22v0.98H372.36z"/>
		<path class="st2" d="M382.75,124.99c-0.78,0-1.46-0.18-2.04-0.54c-0.58-0.36-1.02-0.85-1.34-1.49c-0.32-0.64-0.47-1.37-0.47-2.2
			v-0.34c0-0.8,0.17-1.52,0.5-2.15c0.33-0.63,0.77-1.13,1.32-1.5c0.55-0.37,1.15-0.55,1.8-0.55c0.76,0,1.4,0.16,1.91,0.47
			c0.51,0.31,0.9,0.75,1.16,1.32c0.26,0.57,0.39,1.23,0.39,2v0.96h-5.48l-0.02,0.04c0.01,0.54,0.11,1.02,0.29,1.44
			c0.18,0.42,0.44,0.75,0.78,0.99c0.34,0.24,0.74,0.36,1.22,0.36c0.52,0,0.98-0.07,1.37-0.22c0.39-0.15,0.73-0.35,1.02-0.61l0.6,1
			c-0.3,0.29-0.7,0.54-1.2,0.74C384.04,124.89,383.44,124.99,382.75,124.99z M380.53,119.75h3.9v-0.2c0-0.41-0.07-0.77-0.21-1.09
			c-0.14-0.32-0.36-0.57-0.64-0.76c-0.28-0.18-0.64-0.28-1.07-0.28c-0.34,0-0.66,0.1-0.94,0.3c-0.28,0.2-0.51,0.47-0.7,0.82
			c-0.18,0.34-0.3,0.73-0.36,1.17L380.53,119.75z"/>
		<path class="st2" d="M390.63,124.99c-0.57,0-1.1-0.06-1.59-0.17c-0.5-0.11-1.02-0.29-1.58-0.53l-0.02-2.01h1.16l0.29,1.21
			c0.29,0.12,0.57,0.21,0.85,0.26s0.57,0.08,0.89,0.08c0.62,0,1.07-0.12,1.34-0.36c0.27-0.24,0.41-0.54,0.41-0.89
			c0-0.33-0.14-0.62-0.41-0.85c-0.27-0.23-0.77-0.43-1.49-0.59c-1.02-0.23-1.77-0.55-2.25-0.94c-0.48-0.39-0.72-0.92-0.72-1.57
			c0-0.46,0.13-0.87,0.4-1.23c0.27-0.36,0.64-0.65,1.11-0.86c0.47-0.21,1.03-0.32,1.66-0.32c0.64,0,1.19,0.07,1.64,0.22
			c0.46,0.15,0.85,0.34,1.19,0.59l0.08,1.93h-1.16l-0.25-1.12c-0.18-0.14-0.4-0.24-0.65-0.31c-0.25-0.07-0.54-0.11-0.86-0.11
			c-0.48,0-0.87,0.11-1.17,0.34c-0.3,0.22-0.45,0.51-0.45,0.84c0,0.2,0.04,0.37,0.13,0.52c0.09,0.15,0.25,0.28,0.5,0.39
			c0.24,0.12,0.6,0.23,1.08,0.35c1.18,0.28,2,0.63,2.46,1.05c0.47,0.43,0.7,0.95,0.7,1.58c0,0.71-0.26,1.31-0.79,1.79
			C392.6,124.75,391.76,124.99,390.63,124.99z"/>
		<path class="st2" d="M394.96,128.07v-0.99l1.2-0.22v-9.28l-1.27-0.22v-0.99h2.59l0.14,1.03c0.28-0.39,0.62-0.68,1.03-0.88
			s0.87-0.3,1.4-0.3c0.7,0,1.29,0.19,1.79,0.57c0.5,0.38,0.87,0.91,1.13,1.59s0.39,1.48,0.39,2.39v0.16c0,0.81-0.13,1.52-0.39,2.13
			s-0.64,1.08-1.13,1.43c-0.49,0.34-1.08,0.51-1.77,0.51c-0.52,0-0.98-0.09-1.37-0.26s-0.73-0.43-1-0.78v2.91l1.34,0.22v0.99H394.96
			z M399.59,123.78c0.73,0,1.28-0.27,1.66-0.8s0.56-1.22,0.56-2.07v-0.16c0-0.65-0.08-1.21-0.25-1.71s-0.42-0.88-0.75-1.16
			s-0.74-0.42-1.24-0.42c-0.44,0-0.81,0.1-1.12,0.3c-0.31,0.2-0.57,0.47-0.76,0.81v4.12c0.19,0.35,0.44,0.62,0.75,0.81
			C398.75,123.69,399.14,123.78,399.59,123.78z"/>
		<path class="st2" d="M408.71,124.99c-0.78,0-1.46-0.18-2.04-0.54c-0.58-0.36-1.02-0.85-1.34-1.49c-0.32-0.64-0.47-1.37-0.47-2.2
			v-0.34c0-0.8,0.17-1.52,0.5-2.15s0.77-1.13,1.32-1.5s1.15-0.55,1.8-0.55c0.76,0,1.4,0.16,1.91,0.47s0.9,0.75,1.16,1.32
			c0.26,0.57,0.39,1.23,0.39,2v0.96h-5.48l-0.02,0.04c0.01,0.54,0.11,1.02,0.29,1.44c0.18,0.42,0.44,0.75,0.78,0.99
			c0.34,0.24,0.75,0.36,1.22,0.36c0.52,0,0.98-0.07,1.37-0.22s0.73-0.35,1.02-0.61l0.6,1c-0.3,0.29-0.7,0.54-1.2,0.74
			S409.4,124.99,408.71,124.99z M406.5,119.75h3.9v-0.2c0-0.41-0.07-0.77-0.21-1.09s-0.36-0.57-0.64-0.76
			c-0.28-0.18-0.64-0.28-1.07-0.28c-0.34,0-0.66,0.1-0.94,0.3c-0.28,0.2-0.51,0.47-0.7,0.82s-0.3,0.73-0.36,1.17L406.5,119.75z"/>
		<path class="st2" d="M417.26,124.99c-0.77,0-1.43-0.18-2-0.54c-0.57-0.36-1.01-0.85-1.32-1.49c-0.31-0.64-0.47-1.37-0.47-2.2
			v-0.33c0-0.8,0.15-1.52,0.45-2.16c0.3-0.64,0.74-1.14,1.3-1.51c0.57-0.37,1.25-0.55,2.03-0.55c0.68,0,1.28,0.11,1.79,0.34
			c0.51,0.22,0.94,0.53,1.29,0.92l0.04,2.03h-1.2l-0.27-1.48c-0.18-0.18-0.4-0.33-0.66-0.44s-0.58-0.16-0.94-0.16
			c-0.46,0-0.86,0.14-1.21,0.41c-0.35,0.27-0.62,0.63-0.81,1.09s-0.29,0.96-0.29,1.52v0.33c0,0.61,0.09,1.15,0.27,1.6
			s0.44,0.8,0.77,1.05c0.34,0.25,0.74,0.37,1.2,0.37c0.52,0,0.95-0.14,1.3-0.43c0.34-0.29,0.55-0.68,0.63-1.18h1.38l0.02,0.05
			c-0.03,0.48-0.17,0.94-0.43,1.36s-0.63,0.76-1.11,1.02S417.96,124.99,417.26,124.99z"/>
		<path class="st2" d="M424.76,124.96c-0.62,0-1.12-0.18-1.49-0.55s-0.55-0.95-0.55-1.76v-5.13h-1.34v-1.14h1.34v-2.04h1.54v2.04
			h1.84v1.14h-1.84v5.13c0,0.41,0.08,0.71,0.24,0.9c0.16,0.19,0.38,0.29,0.65,0.29c0.18,0,0.39-0.02,0.61-0.05
			c0.22-0.03,0.4-0.06,0.52-0.09l0.21,1.01c-0.22,0.07-0.5,0.13-0.82,0.18C425.35,124.93,425.04,124.96,424.76,124.96z"/>
		<path class="st2" d="M431.33,124.99c-0.78,0-1.46-0.18-2.04-0.54c-0.58-0.36-1.02-0.85-1.34-1.49c-0.32-0.64-0.47-1.37-0.47-2.2
			v-0.34c0-0.8,0.17-1.52,0.5-2.15s0.77-1.13,1.32-1.5s1.15-0.55,1.8-0.55c0.76,0,1.4,0.16,1.91,0.47s0.9,0.75,1.16,1.32
			c0.26,0.57,0.39,1.23,0.39,2v0.96h-5.48l-0.02,0.04c0.01,0.54,0.11,1.02,0.29,1.44c0.18,0.42,0.44,0.75,0.78,0.99
			c0.34,0.24,0.75,0.36,1.22,0.36c0.52,0,0.98-0.07,1.37-0.22s0.73-0.35,1.02-0.61l0.6,1c-0.3,0.29-0.7,0.54-1.2,0.74
			S432.03,124.99,431.33,124.99z M429.12,119.75h3.9v-0.2c0-0.41-0.07-0.77-0.21-1.09s-0.36-0.57-0.64-0.76
			c-0.28-0.18-0.64-0.28-1.07-0.28c-0.34,0-0.66,0.1-0.94,0.3c-0.28,0.2-0.51,0.47-0.7,0.82s-0.3,0.73-0.36,1.17L429.12,119.75z
			 M430.14,114.76l1.44-2.12h1.8l0.02,0.05l-2.1,2.08h-1.08H430.14z"/>
		<path class="st2" d="M439.84,124.99c-0.78,0-1.46-0.18-2.04-0.54c-0.58-0.36-1.02-0.85-1.34-1.49c-0.32-0.64-0.47-1.37-0.47-2.2
			v-0.34c0-0.8,0.17-1.52,0.5-2.15s0.77-1.13,1.32-1.5s1.15-0.55,1.8-0.55c0.76,0,1.4,0.16,1.91,0.47s0.9,0.75,1.16,1.32
			c0.26,0.57,0.39,1.23,0.39,2v0.96h-5.48l-0.02,0.04c0.01,0.54,0.11,1.02,0.29,1.44c0.18,0.42,0.44,0.75,0.78,0.99
			c0.34,0.24,0.75,0.36,1.22,0.36c0.52,0,0.98-0.07,1.37-0.22s0.73-0.35,1.02-0.61l0.6,1c-0.3,0.29-0.7,0.54-1.2,0.74
			S440.54,124.99,439.84,124.99z M437.63,119.75h3.9v-0.2c0-0.41-0.07-0.77-0.21-1.09s-0.36-0.57-0.64-0.76
			c-0.28-0.18-0.64-0.28-1.07-0.28c-0.34,0-0.66,0.1-0.94,0.3c-0.28,0.2-0.51,0.47-0.7,0.82s-0.3,0.73-0.36,1.17L437.63,119.75z"/>
		<path class="st2" d="M446.5,121.62c0-0.38,0.01-0.69,0.04-0.94c0.03-0.24,0.08-0.46,0.15-0.63c0.08-0.18,0.19-0.35,0.35-0.53
			c0.16-0.18,0.37-0.39,0.63-0.62c0.37-0.33,0.66-0.64,0.86-0.93c0.21-0.29,0.35-0.56,0.44-0.84c0.09-0.27,0.13-0.55,0.13-0.83
			c0-0.55-0.15-0.98-0.44-1.27s-0.71-0.45-1.26-0.45c-0.47,0-0.88,0.13-1.21,0.39s-0.5,0.64-0.5,1.14h-1.47l-0.02-0.05
			c-0.01-0.56,0.12-1.04,0.39-1.46c0.27-0.42,0.65-0.74,1.14-0.97c0.48-0.23,1.04-0.34,1.66-0.34c1.03,0,1.82,0.26,2.39,0.79
			s0.85,1.25,0.85,2.19c0,0.45-0.07,0.86-0.22,1.22s-0.37,0.73-0.67,1.1s-0.67,0.78-1.12,1.23c-0.18,0.19-0.32,0.36-0.4,0.51
			c-0.08,0.15-0.14,0.33-0.16,0.52s-0.04,0.45-0.04,0.77H446.5z M446.48,124.82v-1.62h1.6v1.62H446.48z"/>
	</g>
	<g>
		<path class="st2" d="M653.14,93.42v-0.98l1.27-0.22v-8.96l-1.27-0.22v-0.99h8.42v2.73h-1.23l-0.17-1.55h-4.2v3.7h4.2v1.21h-4.2
			v4.12h4.45l0.17-1.57h1.23v2.73H653.14z"/>
		<path class="st2" d="M663.04,93.42v-0.98l0.94-0.18l2.52-3.11l-2.47-3.01l-0.84-0.18v-0.99h3.31v0.99l-0.84,0.09l1.73,2.16
			l1.69-2.16l-0.91-0.09v-0.99h3.26v0.99l-0.86,0.18l-2.29,2.98l2.63,3.13l0.88,0.18v0.98h-3.59v-0.98l1.02-0.09l-1.85-2.26
			l-1.8,2.26l0.91,0.09v0.98H663.04z"/>
		<path class="st2" d="M676.38,93.59c-0.78,0-1.46-0.18-2.04-0.54c-0.58-0.36-1.02-0.85-1.34-1.49c-0.32-0.64-0.47-1.37-0.47-2.2
			v-0.34c0-0.8,0.17-1.52,0.5-2.15s0.77-1.13,1.32-1.5s1.15-0.55,1.8-0.55c0.76,0,1.4,0.16,1.91,0.47s0.9,0.75,1.16,1.32
			c0.26,0.57,0.39,1.23,0.39,2v0.96h-5.48l-0.02,0.04c0.01,0.54,0.11,1.02,0.29,1.44c0.18,0.42,0.44,0.75,0.78,0.99
			c0.34,0.24,0.75,0.36,1.22,0.36c0.52,0,0.98-0.07,1.37-0.22s0.73-0.35,1.02-0.61l0.6,1c-0.3,0.29-0.7,0.54-1.2,0.74
			S677.08,93.59,676.38,93.59z M674.17,88.35h3.9v-0.2c0-0.41-0.07-0.77-0.21-1.09s-0.36-0.57-0.64-0.76
			c-0.28-0.18-0.64-0.28-1.07-0.28c-0.34,0-0.66,0.1-0.94,0.3c-0.28,0.2-0.51,0.47-0.7,0.82s-0.3,0.73-0.36,1.17L674.17,88.35z
			 M675.19,83.36l1.44-2.12h1.8l0.02,0.05l-2.1,2.08h-1.08H675.19z"/>
		<path class="st2" d="M684.94,93.59c-0.77,0-1.43-0.18-2-0.54c-0.57-0.36-1.01-0.85-1.32-1.49c-0.31-0.64-0.47-1.37-0.47-2.2v-0.33
			c0-0.8,0.15-1.52,0.45-2.16c0.3-0.64,0.74-1.14,1.3-1.51c0.57-0.37,1.25-0.55,2.03-0.55c0.68,0,1.28,0.11,1.79,0.34
			c0.51,0.22,0.94,0.53,1.29,0.92l0.04,2.03h-1.2l-0.27-1.48c-0.18-0.18-0.4-0.33-0.66-0.44s-0.58-0.16-0.94-0.16
			c-0.46,0-0.86,0.14-1.21,0.41c-0.35,0.27-0.62,0.63-0.81,1.09s-0.29,0.96-0.29,1.52v0.33c0,0.61,0.09,1.15,0.27,1.6
			s0.44,0.8,0.77,1.05c0.34,0.25,0.74,0.37,1.2,0.37c0.52,0,0.95-0.14,1.3-0.43c0.34-0.29,0.55-0.68,0.63-1.18h1.38l0.02,0.05
			c-0.03,0.48-0.17,0.94-0.43,1.36s-0.63,0.76-1.11,1.02S685.64,93.59,684.94,93.59z"/>
		<path class="st2" d="M693.17,93.59c-0.92,0-1.63-0.29-2.15-0.88c-0.52-0.59-0.77-1.5-0.77-2.75v-3.77l-0.97-0.22v-0.99h0.97h1.54
			v5c0,0.9,0.13,1.52,0.4,1.86c0.27,0.34,0.68,0.51,1.24,0.51c0.55,0,1-0.11,1.36-0.33c0.36-0.22,0.63-0.54,0.81-0.94v-4.88
			l-1.13-0.22v-0.99h1.13h1.54v7.25l0.97,0.22v0.98h-2.35l-0.1-1.25c-0.27,0.45-0.61,0.8-1.03,1.05S693.72,93.59,693.17,93.59z"/>
		<path class="st2" d="M702.16,93.56c-0.62,0-1.12-0.18-1.49-0.55s-0.55-0.95-0.55-1.76v-5.13h-1.34v-1.14h1.34v-2.04h1.54v2.04
			h1.84v1.14h-1.84v5.13c0,0.41,0.08,0.71,0.24,0.9c0.16,0.19,0.38,0.29,0.65,0.29c0.18,0,0.39-0.02,0.61-0.05
			c0.22-0.03,0.4-0.06,0.52-0.09l0.21,1.01c-0.22,0.07-0.5,0.13-0.82,0.18C702.75,93.53,702.44,93.56,702.16,93.56z"/>
		<path class="st2" d="M704.83,93.42v-0.98l1.27-0.22v-6.04l-1.27-0.22v-0.99h2.81v7.25l1.27,0.22v0.98H704.83z M706.02,82.88v-1.65
			h1.62v1.65H706.02z"/>
		<path class="st2" d="M713.8,93.59c-0.78,0-1.45-0.18-2.02-0.55s-1-0.88-1.31-1.52s-0.46-1.39-0.46-2.22v-0.17
			c0-0.83,0.15-1.57,0.46-2.22s0.74-1.16,1.31-1.53c0.57-0.37,1.23-0.55,2-0.55c0.78,0,1.45,0.19,2.02,0.55
			c0.57,0.37,1,0.88,1.31,1.52c0.31,0.65,0.46,1.39,0.46,2.23v0.17c0,0.84-0.15,1.58-0.46,2.23s-0.74,1.16-1.3,1.52
			C715.24,93.4,714.57,93.59,713.8,93.59z M713.8,92.38c0.49,0,0.9-0.13,1.23-0.4c0.33-0.27,0.58-0.64,0.75-1.1
			c0.17-0.47,0.25-1,0.25-1.59v-0.17c0-0.59-0.08-1.12-0.25-1.59c-0.17-0.47-0.42-0.83-0.75-1.1c-0.33-0.27-0.75-0.4-1.24-0.4
			c-0.49,0-0.9,0.13-1.23,0.4c-0.33,0.27-0.58,0.64-0.75,1.1c-0.17,0.47-0.25,1-0.25,1.59v0.17c0,0.59,0.08,1.12,0.25,1.59
			c0.17,0.47,0.42,0.83,0.75,1.1C712.89,92.25,713.3,92.38,713.8,92.38z"/>
		<path class="st2" d="M718.76,93.42v-0.98l1.27-0.22v-6.04l-1.27-0.22v-0.99h2.65l0.11,1.26c0.28-0.45,0.63-0.8,1.06-1.04
			c0.42-0.25,0.91-0.37,1.45-0.37c0.91,0,1.62,0.27,2.12,0.8c0.5,0.53,0.75,1.36,0.75,2.47v4.13l1.27,0.22v0.98h-4.09v-0.98
			l1.27-0.22v-4.1c0-0.74-0.15-1.27-0.44-1.59s-0.74-0.47-1.35-0.47c-0.44,0-0.83,0.11-1.18,0.32c-0.34,0.21-0.61,0.51-0.82,0.88
			v4.96l1.27,0.22v0.98H718.76z"/>
		<path class="st2" d="M736.55,93.59c-0.69,0-1.28-0.17-1.77-0.51c-0.49-0.34-0.87-0.82-1.13-1.43s-0.39-1.32-0.39-2.13v-0.16
			c0-0.91,0.13-1.7,0.39-2.38c0.26-0.68,0.64-1.21,1.13-1.59c0.5-0.38,1.09-0.57,1.78-0.57c0.5,0,0.94,0.09,1.32,0.28
			c0.38,0.19,0.71,0.45,0.98,0.8v-3.45l-1.27-0.22v-0.99h1.27h1.54v10.98l1.27,0.22v0.98h-2.61l-0.12-1.01
			c-0.28,0.39-0.61,0.68-1.01,0.88S737.07,93.59,736.55,93.59z M736.94,92.34c0.46,0,0.84-0.1,1.16-0.31
			c0.31-0.21,0.57-0.5,0.77-0.88v-3.92c-0.2-0.35-0.46-0.64-0.77-0.84c-0.32-0.21-0.7-0.31-1.14-0.31c-0.49,0-0.89,0.14-1.21,0.42
			c-0.32,0.28-0.55,0.66-0.71,1.16s-0.23,1.06-0.23,1.71v0.16c0,0.85,0.17,1.53,0.52,2.05S736.21,92.34,736.94,92.34z"/>
		<path class="st2" d="M746.55,93.59c-0.78,0-1.46-0.18-2.04-0.54c-0.58-0.36-1.02-0.85-1.34-1.49c-0.32-0.64-0.47-1.37-0.47-2.2
			v-0.34c0-0.8,0.17-1.52,0.5-2.15s0.77-1.13,1.32-1.5s1.15-0.55,1.8-0.55c0.76,0,1.4,0.16,1.91,0.47s0.9,0.75,1.16,1.32
			c0.26,0.57,0.39,1.23,0.39,2v0.96h-5.48l-0.02,0.04c0.01,0.54,0.11,1.02,0.29,1.44c0.18,0.42,0.44,0.75,0.78,0.99
			c0.34,0.24,0.75,0.36,1.22,0.36c0.52,0,0.98-0.07,1.37-0.22s0.73-0.35,1.02-0.61l0.6,1c-0.3,0.29-0.7,0.54-1.2,0.74
			S747.25,93.59,746.55,93.59z M744.34,88.35h3.9v-0.2c0-0.41-0.07-0.77-0.21-1.09s-0.36-0.57-0.64-0.76
			c-0.28-0.18-0.64-0.28-1.07-0.28c-0.34,0-0.66,0.1-0.94,0.3c-0.28,0.2-0.51,0.47-0.7,0.82s-0.3,0.73-0.36,1.17L744.34,88.35z"/>
		<path class="st2" d="M754.44,93.59c-0.57,0-1.1-0.06-1.59-0.17s-1.02-0.29-1.58-0.53l-0.02-2.01h1.16l0.29,1.21
			c0.29,0.12,0.57,0.21,0.85,0.26s0.57,0.08,0.89,0.08c0.62,0,1.07-0.12,1.34-0.36c0.27-0.24,0.41-0.54,0.41-0.89
			c0-0.33-0.14-0.62-0.41-0.85c-0.27-0.23-0.77-0.43-1.49-0.59c-1.02-0.23-1.77-0.55-2.25-0.94c-0.48-0.39-0.72-0.92-0.72-1.57
			c0-0.46,0.13-0.87,0.4-1.23c0.27-0.36,0.64-0.65,1.11-0.86c0.47-0.21,1.03-0.32,1.66-0.32c0.64,0,1.19,0.07,1.64,0.22
			c0.46,0.15,0.85,0.34,1.19,0.59l0.08,1.93h-1.16l-0.25-1.12c-0.18-0.14-0.4-0.24-0.65-0.31c-0.25-0.07-0.54-0.11-0.86-0.11
			c-0.48,0-0.87,0.11-1.17,0.34c-0.3,0.22-0.45,0.51-0.45,0.84c0,0.2,0.04,0.37,0.13,0.52c0.09,0.15,0.25,0.28,0.5,0.39
			s0.6,0.23,1.08,0.35c1.18,0.28,2,0.63,2.46,1.05c0.47,0.43,0.7,0.95,0.7,1.58c0,0.71-0.26,1.31-0.79,1.79
			C756.4,93.35,755.57,93.59,754.44,93.59z"/>
		<path class="st2" d="M659.96,112.62v-0.98l1.27-0.22v-6.04l-1.27-0.22v-0.99h2.81v7.25l1.27,0.22v0.98H659.96z M661.15,102.08
			v-1.65h1.62v1.65H661.15z"/>
		<path class="st2" d="M665.1,112.62v-0.98l1.27-0.22v-6.04l-1.27-0.22v-0.99h2.65l0.11,1.26c0.28-0.45,0.63-0.8,1.06-1.04
			c0.42-0.25,0.91-0.37,1.45-0.37c0.91,0,1.62,0.27,2.12,0.8c0.5,0.53,0.75,1.36,0.75,2.47v4.13l1.27,0.22v0.98h-4.09v-0.98
			l1.27-0.22v-4.1c0-0.74-0.15-1.27-0.44-1.59s-0.74-0.47-1.35-0.47c-0.44,0-0.83,0.11-1.18,0.32c-0.34,0.21-0.61,0.51-0.82,0.88
			v4.96l1.27,0.22v0.98H665.1z"/>
		<path class="st2" d="M679.02,112.79c-0.57,0-1.1-0.06-1.59-0.17s-1.02-0.29-1.58-0.53l-0.02-2.01H677l0.29,1.21
			c0.29,0.12,0.57,0.21,0.85,0.26s0.57,0.08,0.89,0.08c0.62,0,1.07-0.12,1.34-0.36c0.27-0.24,0.41-0.54,0.41-0.89
			c0-0.33-0.14-0.62-0.41-0.85c-0.27-0.23-0.77-0.43-1.49-0.59c-1.02-0.23-1.77-0.55-2.25-0.94c-0.48-0.39-0.72-0.92-0.72-1.57
			c0-0.46,0.13-0.87,0.4-1.23c0.27-0.36,0.64-0.65,1.11-0.86c0.47-0.21,1.03-0.32,1.66-0.32c0.64,0,1.19,0.07,1.64,0.22
			c0.46,0.15,0.85,0.34,1.19,0.59l0.08,1.93h-1.16l-0.25-1.12c-0.18-0.14-0.4-0.24-0.65-0.31c-0.25-0.07-0.54-0.11-0.86-0.11
			c-0.48,0-0.87,0.11-1.17,0.34c-0.3,0.22-0.45,0.51-0.45,0.84c0,0.2,0.04,0.37,0.13,0.52c0.09,0.15,0.25,0.28,0.5,0.39
			s0.6,0.23,1.08,0.35c1.18,0.28,2,0.63,2.46,1.05c0.47,0.43,0.7,0.95,0.7,1.58c0,0.71-0.26,1.31-0.79,1.79
			C680.99,112.55,680.15,112.79,679.02,112.79z"/>
		<path class="st2" d="M686.57,112.76c-0.62,0-1.12-0.18-1.49-0.55s-0.55-0.95-0.55-1.76v-5.13h-1.34v-1.14h1.34v-2.04h1.54v2.04
			h1.84v1.14h-1.84v5.13c0,0.41,0.08,0.71,0.24,0.9c0.16,0.19,0.38,0.29,0.65,0.29c0.18,0,0.39-0.02,0.61-0.05
			c0.22-0.03,0.4-0.06,0.52-0.09l0.21,1.01c-0.22,0.07-0.5,0.13-0.82,0.18C687.15,112.73,686.85,112.76,686.57,112.76z"/>
		<path class="st2" d="M689.27,112.62v-0.98l1.27-0.22v-6.04l-1.27-0.22v-0.99h2.65l0.13,1.08l0.02,0.15
			c0.24-0.43,0.54-0.77,0.89-1.02c0.35-0.24,0.75-0.37,1.21-0.37c0.16,0,0.33,0.01,0.5,0.04c0.17,0.03,0.29,0.06,0.36,0.08
			l-0.2,1.43l-1.07-0.06c-0.41-0.03-0.75,0.07-1.02,0.28s-0.49,0.49-0.64,0.85v4.79l1.27,0.22v0.98H689.27z"/>
		<path class="st2" d="M699.67,112.79c-0.92,0-1.63-0.29-2.15-0.88c-0.52-0.59-0.77-1.5-0.77-2.75v-3.77l-0.97-0.22v-0.99h0.97h1.54
			v5c0,0.9,0.13,1.52,0.4,1.86c0.27,0.34,0.68,0.51,1.24,0.51c0.55,0,1-0.11,1.36-0.33c0.36-0.22,0.63-0.54,0.81-0.94v-4.88
			l-1.13-0.22v-0.99h1.13h1.54v7.25l0.97,0.22v0.98h-2.35l-0.1-1.25c-0.27,0.45-0.61,0.8-1.03,1.05S700.22,112.79,699.67,112.79z"/>
		<path class="st2" d="M709.5,112.79c-0.77,0-1.43-0.18-2-0.54c-0.57-0.36-1.01-0.85-1.32-1.49c-0.31-0.64-0.47-1.37-0.47-2.2v-0.33
			c0-0.8,0.15-1.52,0.45-2.16c0.3-0.64,0.74-1.14,1.3-1.51c0.57-0.37,1.25-0.55,2.03-0.55c0.68,0,1.28,0.11,1.79,0.34
			c0.51,0.22,0.94,0.53,1.29,0.92l0.04,2.03h-1.2l-0.27-1.48c-0.18-0.18-0.4-0.33-0.66-0.44s-0.58-0.16-0.94-0.16
			c-0.46,0-0.86,0.14-1.21,0.41c-0.35,0.27-0.62,0.63-0.81,1.09s-0.29,0.96-0.29,1.52v0.33c0,0.61,0.09,1.15,0.27,1.6
			s0.44,0.8,0.77,1.05c0.34,0.25,0.74,0.37,1.2,0.37c0.52,0,0.95-0.14,1.3-0.43c0.34-0.29,0.55-0.68,0.63-1.18h1.38l0.02,0.05
			c-0.03,0.48-0.17,0.94-0.43,1.36s-0.63,0.76-1.11,1.02S710.21,112.79,709.5,112.79z"/>
		<path class="st2" d="M717,112.76c-0.62,0-1.12-0.18-1.49-0.55s-0.55-0.95-0.55-1.76v-5.13h-1.34v-1.14h1.34v-2.04h1.54v2.04h1.84
			v1.14h-1.84v5.13c0,0.41,0.08,0.71,0.24,0.9c0.16,0.19,0.38,0.29,0.65,0.29c0.18,0,0.39-0.02,0.61-0.05
			c0.22-0.03,0.4-0.06,0.52-0.09l0.21,1.01c-0.22,0.07-0.5,0.13-0.82,0.18C717.59,112.73,717.28,112.76,717,112.76z"/>
		<path class="st2" d="M719.67,112.62v-0.98l1.27-0.22v-6.04l-1.27-0.22v-0.99h2.81v7.25l1.27,0.22v0.98H719.67z M720.86,102.08
			v-1.65h1.62v1.65H720.86z"/>
		<path class="st2" d="M728.64,112.79c-0.78,0-1.45-0.18-2.02-0.55s-1-0.88-1.31-1.52s-0.46-1.39-0.46-2.22v-0.17
			c0-0.83,0.15-1.57,0.46-2.22s0.74-1.16,1.31-1.53c0.57-0.37,1.23-0.55,2-0.55c0.78,0,1.45,0.19,2.02,0.55
			c0.57,0.37,1,0.88,1.31,1.52c0.31,0.65,0.46,1.39,0.46,2.23v0.17c0,0.84-0.15,1.58-0.46,2.23s-0.74,1.16-1.3,1.52
			C730.08,112.6,729.41,112.79,728.64,112.79z M728.64,111.58c0.49,0,0.9-0.13,1.23-0.4c0.33-0.27,0.58-0.64,0.75-1.1
			c0.17-0.47,0.25-1,0.25-1.59v-0.17c0-0.59-0.08-1.12-0.25-1.59c-0.17-0.47-0.42-0.83-0.75-1.1c-0.33-0.27-0.75-0.4-1.24-0.4
			c-0.49,0-0.9,0.13-1.23,0.4c-0.33,0.27-0.58,0.64-0.75,1.1c-0.17,0.47-0.25,1-0.25,1.59v0.17c0,0.59,0.08,1.12,0.25,1.59
			c0.17,0.47,0.42,0.83,0.75,1.1C727.73,111.45,728.14,111.58,728.64,111.58z"/>
		<path class="st2" d="M733.6,112.62v-0.98l1.27-0.22v-6.04l-1.27-0.22v-0.99h2.65l0.11,1.26c0.28-0.45,0.63-0.8,1.06-1.04
			c0.42-0.25,0.91-0.37,1.45-0.37c0.91,0,1.62,0.27,2.12,0.8c0.5,0.53,0.75,1.36,0.75,2.47v4.13l1.27,0.22v0.98h-4.09v-0.98
			l1.27-0.22v-4.1c0-0.74-0.15-1.27-0.44-1.59s-0.74-0.47-1.35-0.47c-0.44,0-0.83,0.11-1.18,0.32c-0.34,0.21-0.61,0.51-0.82,0.88
			v4.96l1.27,0.22v0.98H733.6z"/>
		<path class="st2" d="M747.51,112.79c-0.57,0-1.1-0.06-1.59-0.17s-1.02-0.29-1.58-0.53l-0.02-2.01h1.16l0.29,1.21
			c0.29,0.12,0.57,0.21,0.85,0.26s0.57,0.08,0.89,0.08c0.62,0,1.07-0.12,1.34-0.36c0.27-0.24,0.41-0.54,0.41-0.89
			c0-0.33-0.14-0.62-0.41-0.85c-0.27-0.23-0.77-0.43-1.49-0.59c-1.02-0.23-1.77-0.55-2.25-0.94c-0.48-0.39-0.72-0.92-0.72-1.57
			c0-0.46,0.13-0.87,0.4-1.23c0.27-0.36,0.64-0.65,1.11-0.86c0.47-0.21,1.03-0.32,1.66-0.32c0.64,0,1.19,0.07,1.64,0.22
			c0.46,0.15,0.85,0.34,1.19,0.59l0.08,1.93h-1.16l-0.25-1.12c-0.18-0.14-0.4-0.24-0.65-0.31c-0.25-0.07-0.54-0.11-0.86-0.11
			c-0.48,0-0.87,0.11-1.17,0.34c-0.3,0.22-0.45,0.51-0.45,0.84c0,0.2,0.04,0.37,0.13,0.52c0.09,0.15,0.25,0.28,0.5,0.39
			s0.6,0.23,1.08,0.35c1.18,0.28,2,0.63,2.46,1.05c0.47,0.43,0.7,0.95,0.7,1.58c0,0.71-0.26,1.31-0.79,1.79
			C749.48,112.55,748.65,112.79,747.51,112.79z"/>
	</g>
	<g>
		<path class="st2" d="M486.25,23.31v-0.98l1.27-0.22v-8.96l-1.27-0.22v-0.99h1.27h2.05l3.66,8.63h0.05l3.55-8.63h3.43v0.99
			l-1.27,0.22v8.96l1.27,0.22v0.98h-4.09v-0.98l1.34-0.22v-3.3v-4.77l-0.04-0.01l-3.7,8.88h-1.02l-3.82-8.86l-0.04,0.01l0.05,4.76
			v3.3l1.38,0.22v0.98H486.25z"/>
		<path class="st2" d="M501.52,23.31v-0.98l1.27-0.22v-6.04l-1.27-0.22v-0.99h2.81v7.25l1.27,0.22v0.98H501.52z M502.72,12.77v-1.65
			h1.62v1.65H502.72z"/>
		<path class="st2" d="M510.09,23.47c-0.57,0-1.1-0.06-1.59-0.17s-1.02-0.29-1.58-0.53l-0.02-2.01h1.16l0.29,1.21
			c0.29,0.12,0.57,0.21,0.85,0.26s0.57,0.08,0.89,0.08c0.62,0,1.07-0.12,1.34-0.36c0.27-0.24,0.41-0.54,0.41-0.89
			c0-0.33-0.14-0.62-0.41-0.85c-0.27-0.23-0.77-0.43-1.49-0.59c-1.02-0.23-1.77-0.55-2.25-0.94c-0.48-0.39-0.72-0.92-0.72-1.57
			c0-0.46,0.13-0.87,0.4-1.23c0.27-0.36,0.64-0.65,1.11-0.86c0.47-0.21,1.03-0.32,1.66-0.32c0.64,0,1.19,0.07,1.64,0.22
			c0.46,0.15,0.85,0.34,1.19,0.59l0.08,1.93h-1.16l-0.25-1.12c-0.18-0.14-0.4-0.24-0.65-0.31c-0.25-0.07-0.54-0.11-0.86-0.11
			c-0.48,0-0.87,0.11-1.17,0.34c-0.3,0.22-0.45,0.51-0.45,0.84c0,0.2,0.04,0.37,0.13,0.52c0.09,0.15,0.25,0.28,0.5,0.39
			s0.6,0.23,1.08,0.35c1.18,0.28,2,0.63,2.46,1.05c0.47,0.43,0.7,0.95,0.7,1.58c0,0.71-0.26,1.31-0.79,1.79
			C512.06,23.23,511.23,23.47,510.09,23.47z"/>
		<path class="st2" d="M518.51,23.47c-0.78,0-1.46-0.18-2.04-0.54c-0.58-0.36-1.02-0.85-1.34-1.49c-0.32-0.64-0.47-1.37-0.47-2.2
			V18.9c0-0.8,0.17-1.52,0.5-2.15s0.77-1.13,1.32-1.5s1.15-0.55,1.8-0.55c0.76,0,1.4,0.16,1.91,0.47s0.9,0.75,1.16,1.32
			c0.26,0.57,0.39,1.23,0.39,2v0.96h-5.48l-0.02,0.04c0.01,0.54,0.11,1.02,0.29,1.44c0.18,0.42,0.44,0.75,0.78,0.99
			c0.34,0.24,0.75,0.36,1.22,0.36c0.52,0,0.98-0.07,1.37-0.22s0.73-0.35,1.02-0.61l0.6,1c-0.3,0.29-0.7,0.54-1.2,0.74
			S519.21,23.47,518.51,23.47z M516.3,18.23h3.9v-0.2c0-0.41-0.07-0.77-0.21-1.09s-0.36-0.57-0.64-0.76
			c-0.28-0.18-0.64-0.28-1.07-0.28c-0.34,0-0.66,0.1-0.94,0.3c-0.28,0.2-0.51,0.47-0.7,0.82s-0.3,0.73-0.36,1.17L516.3,18.23z"/>
		<path class="st2" d="M529.64,23.47c-0.88,0-1.55-0.21-2.01-0.64s-0.69-1.04-0.69-1.82c0-0.54,0.15-1,0.44-1.4s0.72-0.71,1.28-0.93
			c0.56-0.22,1.22-0.33,2-0.33h1.51v-0.83c0-0.51-0.16-0.91-0.46-1.19s-0.75-0.42-1.31-0.42c-0.35,0-0.66,0.04-0.92,0.13
			s-0.5,0.2-0.71,0.36l-0.16,1.18h-1.19v-1.94c0.38-0.31,0.82-0.54,1.33-0.7c0.5-0.16,1.07-0.24,1.68-0.24
			c1.03,0,1.83,0.25,2.41,0.73c0.58,0.49,0.88,1.19,0.88,2.1v4.07c0,0.11,0,0.22,0,0.32c0,0.1,0.01,0.21,0.02,0.31l0.82,0.09v0.98
			h-2.21c-0.05-0.23-0.08-0.43-0.11-0.62c-0.03-0.18-0.04-0.36-0.05-0.55c-0.3,0.38-0.67,0.7-1.11,0.95S530.14,23.47,529.64,23.47z
			 M531.44,13.24h-0.07h-1.08l-2.1-2.08l0.02-0.05h1.8L531.44,13.24z M529.87,22.18c0.51,0,0.98-0.12,1.4-0.37
			c0.42-0.24,0.72-0.54,0.91-0.88V19.4h-1.56c-0.71,0-1.24,0.17-1.59,0.51c-0.35,0.34-0.53,0.72-0.53,1.13
			c0,0.37,0.11,0.65,0.34,0.85S529.4,22.18,529.87,22.18z"/>
		<path class="st2" d="M539.58,26.72c-0.17,0-0.32-0.01-0.45-0.04s-0.28-0.06-0.42-0.11l0.1-1.17c0.07,0.03,0.2,0.05,0.37,0.07
			c0.17,0.02,0.31,0.03,0.4,0.03c0.31,0,0.55-0.13,0.73-0.4c0.18-0.27,0.27-0.64,0.27-1.11v-7.94l-1.27-0.22v-0.99h2.81V24
			c0,0.87-0.22,1.54-0.67,2.01C541,26.48,540.38,26.72,539.58,26.72z M540.51,12.77v-1.65h1.62v1.65H540.51z"/>
		<path class="st2" d="M547.65,23.47c-0.78,0-1.45-0.18-2.02-0.55s-1-0.88-1.31-1.52s-0.46-1.39-0.46-2.22V19
			c0-0.83,0.15-1.57,0.46-2.22s0.74-1.16,1.31-1.53c0.57-0.37,1.23-0.55,2-0.55c0.78,0,1.45,0.19,2.02,0.55
			c0.57,0.37,1,0.88,1.31,1.52c0.31,0.65,0.46,1.39,0.46,2.23v0.17c0,0.84-0.15,1.58-0.46,2.23s-0.74,1.16-1.3,1.52
			C549.09,23.29,548.42,23.47,547.65,23.47z M547.65,22.27c0.49,0,0.9-0.13,1.23-0.4c0.33-0.27,0.58-0.64,0.75-1.1
			c0.17-0.47,0.25-1,0.25-1.59V19c0-0.59-0.08-1.12-0.25-1.59c-0.17-0.47-0.42-0.83-0.75-1.1c-0.33-0.27-0.75-0.4-1.24-0.4
			c-0.49,0-0.9,0.13-1.23,0.4c-0.33,0.27-0.58,0.64-0.75,1.1c-0.17,0.47-0.25,1-0.25,1.59v0.17c0,0.59,0.08,1.12,0.25,1.59
			c0.17,0.47,0.42,0.83,0.75,1.1C546.74,22.13,547.15,22.27,547.65,22.27z"/>
		<path class="st2" d="M556.33,23.47c-0.92,0-1.63-0.29-2.15-0.88c-0.52-0.59-0.77-1.5-0.77-2.75v-3.77l-0.97-0.22v-0.99h0.97h1.54
			v5c0,0.9,0.13,1.52,0.4,1.86c0.27,0.34,0.68,0.51,1.24,0.51c0.55,0,1-0.11,1.36-0.33c0.36-0.22,0.63-0.54,0.81-0.94v-4.88
			l-1.13-0.22v-0.99h1.13h1.54v7.25l0.97,0.22v0.98h-2.35l-0.1-1.25c-0.27,0.45-0.61,0.8-1.03,1.05S556.87,23.47,556.33,23.47z"/>
		<path class="st2" d="M562.32,23.31v-0.98l1.27-0.22v-6.04l-1.27-0.22v-0.99h2.65l0.13,1.08l0.02,0.15
			c0.24-0.43,0.54-0.77,0.89-1.02c0.35-0.24,0.75-0.37,1.21-0.37c0.16,0,0.33,0.01,0.5,0.04c0.17,0.03,0.29,0.06,0.36,0.08
			l-0.2,1.43l-1.07-0.06c-0.41-0.03-0.75,0.07-1.02,0.28s-0.49,0.49-0.64,0.85v4.79l1.27,0.22v0.98H562.32z"/>
		<path class="st2" d="M572.43,23.47c-0.57,0-1.1-0.06-1.59-0.17s-1.02-0.29-1.58-0.53l-0.02-2.01h1.16l0.29,1.21
			c0.29,0.12,0.57,0.21,0.85,0.26s0.57,0.08,0.89,0.08c0.62,0,1.07-0.12,1.34-0.36c0.27-0.24,0.41-0.54,0.41-0.89
			c0-0.33-0.14-0.62-0.41-0.85c-0.27-0.23-0.77-0.43-1.49-0.59c-1.02-0.23-1.77-0.55-2.25-0.94c-0.48-0.39-0.72-0.92-0.72-1.57
			c0-0.46,0.13-0.87,0.4-1.23c0.27-0.36,0.64-0.65,1.11-0.86c0.47-0.21,1.03-0.32,1.66-0.32c0.64,0,1.19,0.07,1.64,0.22
			c0.46,0.15,0.85,0.34,1.19,0.59l0.08,1.93h-1.16l-0.25-1.12c-0.18-0.14-0.4-0.24-0.65-0.31c-0.25-0.07-0.54-0.11-0.86-0.11
			c-0.48,0-0.87,0.11-1.17,0.34c-0.3,0.22-0.45,0.51-0.45,0.84c0,0.2,0.04,0.37,0.13,0.52c0.09,0.15,0.25,0.28,0.5,0.39
			s0.6,0.23,1.08,0.35c1.18,0.28,2,0.63,2.46,1.05c0.47,0.43,0.7,0.95,0.7,1.58c0,0.71-0.26,1.31-0.79,1.79
			C574.4,23.23,573.56,23.47,572.43,23.47z"/>
		<path class="st2" d="M584.29,23.47c-0.69,0-1.28-0.17-1.77-0.51c-0.49-0.34-0.87-0.82-1.13-1.43S581,20.21,581,19.4v-0.16
			c0-0.91,0.13-1.7,0.39-2.38c0.26-0.68,0.64-1.21,1.13-1.59c0.5-0.38,1.09-0.57,1.78-0.57c0.5,0,0.94,0.09,1.32,0.28
			c0.38,0.19,0.71,0.45,0.98,0.8v-3.45l-1.27-0.22v-0.99h1.27h1.54V22.1l1.27,0.22v0.98h-2.61l-0.12-1.01
			c-0.28,0.39-0.61,0.68-1.01,0.88S584.81,23.47,584.29,23.47z M584.68,22.22c0.46,0,0.84-0.1,1.16-0.31
			c0.31-0.21,0.57-0.5,0.77-0.88V17.1c-0.2-0.35-0.46-0.64-0.77-0.84c-0.32-0.21-0.7-0.31-1.14-0.31c-0.49,0-0.89,0.14-1.21,0.42
			c-0.32,0.28-0.55,0.66-0.71,1.16s-0.23,1.06-0.23,1.71v0.16c0,0.85,0.17,1.53,0.52,2.05S583.95,22.22,584.68,22.22z"/>
		<path class="st2" d="M594.2,23.47c-0.92,0-1.63-0.29-2.15-0.88c-0.52-0.59-0.77-1.5-0.77-2.75v-3.77l-0.97-0.22v-0.99h0.97h1.54v5
			c0,0.9,0.13,1.52,0.4,1.86c0.27,0.34,0.68,0.51,1.24,0.51c0.55,0,1-0.11,1.36-0.33c0.36-0.22,0.63-0.54,0.81-0.94v-4.88
			l-1.13-0.22v-0.99h1.13h1.54v7.25l0.97,0.22v0.98h-2.35l-0.1-1.25c-0.27,0.45-0.61,0.8-1.03,1.05S594.75,23.47,594.2,23.47z"/>
		<path class="st2" d="M608.01,23.47c-0.77,0-1.43-0.18-2-0.54c-0.57-0.36-1.01-0.85-1.32-1.49c-0.31-0.64-0.47-1.37-0.47-2.2v-0.33
			c0-0.8,0.15-1.52,0.45-2.16c0.3-0.64,0.74-1.14,1.3-1.51c0.57-0.37,1.25-0.55,2.03-0.55c0.68,0,1.28,0.11,1.79,0.34
			c0.51,0.22,0.94,0.53,1.29,0.92l0.04,2.03h-1.2l-0.27-1.48c-0.18-0.18-0.4-0.33-0.66-0.44s-0.58-0.16-0.94-0.16
			c-0.46,0-0.86,0.14-1.21,0.41c-0.35,0.27-0.62,0.63-0.81,1.09s-0.29,0.96-0.29,1.52v0.33c0,0.61,0.09,1.15,0.27,1.6
			s0.44,0.8,0.77,1.05c0.34,0.25,0.74,0.37,1.2,0.37c0.52,0,0.95-0.14,1.3-0.43c0.34-0.29,0.55-0.68,0.63-1.18h1.38l0.02,0.05
			c-0.03,0.48-0.17,0.94-0.43,1.36s-0.63,0.76-1.11,1.02S608.71,23.47,608.01,23.47z"/>
		<path class="st2" d="M616.54,23.47c-0.78,0-1.45-0.18-2.02-0.55s-1-0.88-1.31-1.52s-0.46-1.39-0.46-2.22V19
			c0-0.83,0.15-1.57,0.46-2.22s0.74-1.16,1.31-1.53c0.57-0.37,1.23-0.55,2-0.55c0.78,0,1.45,0.19,2.02,0.55
			c0.57,0.37,1,0.88,1.31,1.52c0.31,0.65,0.46,1.39,0.46,2.23v0.17c0,0.84-0.15,1.58-0.46,2.23s-0.74,1.16-1.3,1.52
			C617.98,23.29,617.31,23.47,616.54,23.47z M616.54,22.27c0.49,0,0.9-0.13,1.23-0.4c0.33-0.27,0.58-0.64,0.75-1.1
			c0.17-0.47,0.25-1,0.25-1.59V19c0-0.59-0.08-1.12-0.25-1.59c-0.17-0.47-0.42-0.83-0.75-1.1c-0.33-0.27-0.75-0.4-1.24-0.4
			c-0.49,0-0.9,0.13-1.23,0.4c-0.33,0.27-0.58,0.64-0.75,1.1c-0.17,0.47-0.25,1-0.25,1.59v0.17c0,0.59,0.08,1.12,0.25,1.59
			c0.17,0.47,0.42,0.83,0.75,1.1C615.63,22.13,616.04,22.27,616.54,22.27z"/>
		<path class="st2" d="M621.5,23.31v-0.98l1.27-0.22v-6.04l-1.27-0.22v-0.99h2.66l0.1,1.1c0.27-0.4,0.62-0.71,1.05-0.93
			s0.92-0.33,1.48-0.33s1.05,0.13,1.45,0.39c0.4,0.26,0.71,0.65,0.91,1.17c0.27-0.48,0.62-0.86,1.05-1.14s0.95-0.42,1.53-0.42
			c0.86,0,1.55,0.3,2.05,0.89c0.5,0.59,0.75,1.48,0.75,2.67v3.85l1.27,0.22v0.98h-4.09v-0.98l1.27-0.22v-3.87
			c0-0.83-0.14-1.42-0.43-1.77c-0.29-0.35-0.71-0.52-1.27-0.52c-0.54,0-0.97,0.19-1.29,0.57c-0.33,0.38-0.51,0.85-0.57,1.43v4.16
			l1.27,0.22v0.98h-4.09v-0.98l1.27-0.22v-3.87c0-0.79-0.15-1.37-0.44-1.74s-0.72-0.55-1.28-0.55c-0.47,0-0.85,0.1-1.16,0.29
			c-0.3,0.19-0.53,0.46-0.7,0.81v5.05l1.27,0.22v0.98H621.5z"/>
		<path class="st2" d="M636.71,26.56v-0.99l1.2-0.22v-9.28l-1.27-0.22v-0.99h2.59l0.14,1.03c0.28-0.39,0.62-0.68,1.03-0.88
			s0.87-0.3,1.4-0.3c0.7,0,1.29,0.19,1.79,0.57c0.5,0.38,0.87,0.91,1.13,1.59s0.39,1.48,0.39,2.39v0.16c0,0.81-0.13,1.52-0.39,2.13
			s-0.64,1.08-1.13,1.43c-0.49,0.34-1.08,0.51-1.77,0.51c-0.52,0-0.98-0.09-1.37-0.26s-0.73-0.43-1-0.78v2.91l1.34,0.22v0.99H636.71
			z M641.34,22.27c0.73,0,1.28-0.27,1.66-0.8s0.56-1.22,0.56-2.07v-0.16c0-0.65-0.08-1.21-0.25-1.71s-0.42-0.88-0.75-1.16
			s-0.74-0.42-1.24-0.42c-0.44,0-0.81,0.1-1.12,0.3c-0.31,0.2-0.57,0.47-0.76,0.81v4.12c0.19,0.35,0.44,0.62,0.75,0.81
			C640.51,22.17,640.89,22.27,641.34,22.27z"/>
		<path class="st2" d="M649.28,23.44c-0.62,0-1.12-0.18-1.49-0.55s-0.55-0.95-0.55-1.76v-5.13h-1.34v-1.14h1.34v-2.04h1.54v2.04
			h1.84v1.14h-1.84v5.13c0,0.41,0.08,0.71,0.24,0.9c0.16,0.19,0.38,0.29,0.65,0.29c0.18,0,0.39-0.02,0.61-0.05
			c0.22-0.03,0.4-0.06,0.52-0.09l0.21,1.01c-0.22,0.07-0.5,0.13-0.82,0.18C649.87,23.41,649.56,23.44,649.28,23.44z"/>
		<path class="st2" d="M655.69,23.47c-0.78,0-1.46-0.18-2.04-0.54c-0.58-0.36-1.02-0.85-1.34-1.49c-0.32-0.64-0.47-1.37-0.47-2.2
			V18.9c0-0.8,0.17-1.52,0.5-2.15s0.77-1.13,1.32-1.5s1.15-0.55,1.8-0.55c0.76,0,1.4,0.16,1.91,0.47s0.9,0.75,1.16,1.32
			c0.26,0.57,0.39,1.23,0.39,2v0.96h-5.48l-0.02,0.04c0.01,0.54,0.11,1.02,0.29,1.44c0.18,0.42,0.44,0.75,0.78,0.99
			c0.34,0.24,0.75,0.36,1.22,0.36c0.52,0,0.98-0.07,1.37-0.22s0.73-0.35,1.02-0.61l0.6,1c-0.3,0.29-0.7,0.54-1.2,0.74
			S656.39,23.47,655.69,23.47z M653.48,18.23h3.9v-0.2c0-0.41-0.07-0.77-0.21-1.09s-0.36-0.57-0.64-0.76
			c-0.28-0.18-0.64-0.28-1.07-0.28c-0.34,0-0.66,0.1-0.94,0.3c-0.28,0.2-0.51,0.47-0.7,0.82s-0.3,0.73-0.36,1.17L653.48,18.23z"/>
		<path class="st2" d="M663.83,23.47c-0.92,0-1.63-0.29-2.15-0.88c-0.52-0.59-0.77-1.5-0.77-2.75v-3.77l-0.97-0.22v-0.99h0.97h1.54
			v5c0,0.9,0.13,1.52,0.4,1.86c0.27,0.34,0.68,0.51,1.24,0.51c0.55,0,1-0.11,1.36-0.33c0.36-0.22,0.63-0.54,0.81-0.94v-4.88
			l-1.13-0.22v-0.99h1.13h1.54v7.25l0.97,0.22v0.98h-2.35l-0.1-1.25c-0.27,0.45-0.61,0.8-1.03,1.05S664.38,23.47,663.83,23.47z"/>
		<path class="st2" d="M669.83,23.31v-0.98l1.27-0.22v-6.04l-1.27-0.22v-0.99h2.65l0.13,1.08l0.02,0.15
			c0.24-0.43,0.54-0.77,0.89-1.02c0.35-0.24,0.75-0.37,1.21-0.37c0.16,0,0.33,0.01,0.5,0.04c0.17,0.03,0.29,0.06,0.36,0.08
			l-0.2,1.43l-1.07-0.06c-0.41-0.03-0.75,0.07-1.02,0.28s-0.49,0.49-0.64,0.85v4.79l1.27,0.22v0.98H669.83z"/>
	</g>
	<g>
		<path d="M573.62,103.4c-0.73,0-1.39-0.14-1.98-0.42s-1.08-0.68-1.49-1.19c-0.41-0.51-0.72-1.12-0.94-1.82s-0.32-1.48-0.32-2.33
			v-0.16c0-0.84,0.11-1.62,0.32-2.32c0.22-0.71,0.53-1.32,0.94-1.83s0.91-0.91,1.49-1.2s1.24-0.42,1.98-0.42
			c0.78,0,1.46,0.14,2.05,0.42s1.08,0.68,1.48,1.2s0.7,1.13,0.9,1.83c0.2,0.71,0.3,1.48,0.3,2.32v0.16c0,0.85-0.1,1.62-0.3,2.33
			s-0.5,1.31-0.9,1.82c-0.4,0.51-0.89,0.91-1.48,1.19S574.4,103.4,573.62,103.4z M573.62,102.12c0.75,0,1.37-0.19,1.83-0.56
			s0.81-0.9,1.03-1.57c0.22-0.67,0.33-1.46,0.33-2.35v-0.18c0-0.88-0.11-1.66-0.33-2.33c-0.22-0.67-0.57-1.19-1.04-1.57
			c-0.47-0.38-1.08-0.57-1.82-0.57c-0.68,0-1.26,0.19-1.73,0.57c-0.47,0.38-0.83,0.91-1.08,1.57c-0.25,0.67-0.37,1.44-0.37,2.32
			v0.18c0,0.89,0.12,1.67,0.37,2.34c0.25,0.67,0.6,1.2,1.08,1.58C572.36,101.93,572.94,102.12,573.62,102.12z"/>
		<path d="M583.2,103.4c-0.92,0-1.63-0.29-2.15-0.88c-0.52-0.59-0.77-1.5-0.77-2.75v-3.77l-0.97-0.22v-0.99h0.97h1.54v5
			c0,0.9,0.13,1.52,0.4,1.86c0.27,0.34,0.68,0.51,1.24,0.51c0.55,0,1-0.11,1.36-0.33c0.36-0.22,0.63-0.54,0.81-0.94v-4.88
			l-1.13-0.22v-0.99h1.13h1.54v7.25l0.97,0.22v0.98h-2.35l-0.1-1.25c-0.27,0.45-0.61,0.8-1.03,1.05
			C584.23,103.28,583.74,103.4,583.2,103.4z"/>
		<path d="M589.15,103.23v-0.98l1.27-0.22v-6.04l-1.27-0.22v-0.99h2.81v7.25l1.27,0.22v0.98H589.15z M590.35,92.69v-1.65h1.62v1.65
			H590.35z"/>
	</g>
	<g>
		<path d="M395.27,211v-0.98l1.27-0.22v-8.96l-1.27-0.22v-0.99h1.27h1.55l5.58,8.87l0.05-0.02v-7.64l-1.4-0.22v-0.99h2.81h1.27v0.99
			l-1.27,0.22V211h-1.41l-5.73-8.91l-0.05,0.02v7.7l1.4,0.22V211H395.27z"/>
		<path d="M411.46,211.17c-0.78,0-1.46-0.18-2.02-0.55c-0.57-0.37-1-0.88-1.31-1.52c-0.31-0.65-0.46-1.39-0.46-2.22v-0.17
			c0-0.83,0.15-1.57,0.46-2.22c0.31-0.65,0.74-1.16,1.31-1.53c0.56-0.37,1.23-0.55,2-0.55c0.78,0,1.45,0.18,2.02,0.55
			c0.56,0.37,1,0.88,1.31,1.52c0.31,0.64,0.46,1.39,0.46,2.23v0.17c0,0.84-0.15,1.58-0.46,2.23c-0.31,0.65-0.74,1.15-1.3,1.52
			C412.9,210.98,412.23,211.17,411.46,211.17z M411.46,209.96c0.49,0,0.9-0.13,1.23-0.4c0.33-0.27,0.58-0.64,0.75-1.1
			c0.17-0.47,0.25-1,0.25-1.59v-0.17c0-0.59-0.08-1.12-0.25-1.59c-0.17-0.47-0.42-0.83-0.75-1.1c-0.33-0.27-0.75-0.4-1.24-0.4
			c-0.49,0-0.9,0.13-1.23,0.4c-0.33,0.27-0.58,0.63-0.75,1.1c-0.17,0.46-0.25,1-0.25,1.59v0.17c0,0.59,0.08,1.12,0.25,1.59
			c0.17,0.46,0.42,0.83,0.75,1.1C410.55,209.83,410.96,209.96,411.46,209.96z"/>
		<path d="M416.42,211v-0.98l1.27-0.22v-6.04l-1.27-0.22v-0.99h2.65l0.11,1.26c0.28-0.45,0.63-0.8,1.06-1.04
			c0.42-0.25,0.91-0.37,1.45-0.37c0.91,0,1.62,0.27,2.12,0.8c0.5,0.53,0.75,1.36,0.75,2.47v4.13l1.27,0.22V211h-4.09v-0.98
			l1.27-0.22v-4.1c0-0.75-0.15-1.27-0.44-1.59c-0.29-0.31-0.74-0.47-1.35-0.47c-0.44,0-0.83,0.11-1.18,0.32
			c-0.34,0.21-0.61,0.5-0.82,0.88v4.96l1.27,0.22V211H416.42z"/>
	</g>
	<g>
		<path d="M343.48,282.74c-0.69,0-1.36-0.1-2-0.3s-1.25-0.52-1.84-0.94v-2.43h1.2l0.26,1.79c0.34,0.21,0.71,0.37,1.1,0.48
			c0.4,0.11,0.82,0.17,1.28,0.17c0.52,0,0.96-0.08,1.32-0.24c0.36-0.16,0.64-0.38,0.83-0.66s0.29-0.61,0.29-0.98
			c0-0.35-0.08-0.66-0.25-0.92s-0.44-0.5-0.82-0.7c-0.38-0.2-0.91-0.38-1.57-0.53c-0.78-0.18-1.44-0.43-1.98-0.73
			s-0.95-0.68-1.23-1.11c-0.28-0.44-0.42-0.93-0.42-1.5c0-0.59,0.16-1.12,0.47-1.59s0.75-0.84,1.32-1.11
			c0.56-0.27,1.22-0.41,1.97-0.41c0.8,0,1.5,0.12,2.11,0.36s1.12,0.54,1.51,0.88v2.27h-1.2l-0.26-1.62
			c-0.23-0.19-0.53-0.34-0.88-0.47s-0.78-0.19-1.3-0.19c-0.44,0-0.82,0.08-1.16,0.23c-0.33,0.15-0.59,0.37-0.78,0.64
			c-0.19,0.28-0.28,0.6-0.28,0.98c0,0.33,0.08,0.61,0.25,0.86c0.17,0.24,0.45,0.46,0.83,0.64c0.38,0.18,0.89,0.36,1.54,0.52
			c1.2,0.3,2.11,0.73,2.72,1.32c0.62,0.58,0.93,1.3,0.93,2.15c0,0.61-0.16,1.15-0.49,1.62c-0.33,0.47-0.79,0.84-1.39,1.11
			S344.29,282.74,343.48,282.74z"/>
		<path d="M352.57,282.74c-0.78,0-1.45-0.18-2.02-0.55s-1-0.88-1.31-1.52s-0.46-1.39-0.46-2.22v-0.17c0-0.83,0.15-1.57,0.46-2.22
			s0.74-1.16,1.31-1.53c0.57-0.37,1.23-0.55,2-0.55c0.78,0,1.45,0.18,2.02,0.55c0.57,0.37,1,0.88,1.31,1.52
			c0.31,0.64,0.46,1.39,0.46,2.23v0.17c0,0.84-0.15,1.58-0.46,2.23s-0.74,1.15-1.3,1.52C354.01,282.55,353.34,282.74,352.57,282.74z
			 M352.57,281.54c0.49,0,0.9-0.13,1.23-0.4c0.33-0.27,0.58-0.64,0.75-1.1c0.17-0.47,0.25-1,0.25-1.59v-0.17
			c0-0.59-0.08-1.12-0.25-1.59c-0.17-0.47-0.42-0.83-0.75-1.1c-0.33-0.27-0.75-0.4-1.24-0.4c-0.49,0-0.9,0.13-1.23,0.4
			c-0.33,0.27-0.58,0.63-0.75,1.1c-0.17,0.46-0.25,1-0.25,1.59v0.17c0,0.59,0.08,1.12,0.25,1.59c0.17,0.46,0.42,0.83,0.75,1.1
			C351.66,281.4,352.07,281.54,352.57,281.54z"/>
		<path d="M357.51,282.57v-0.98l1.27-0.22v-6.04l-1.27-0.22v-0.99h2.65l0.13,1.08l0.02,0.15c0.24-0.43,0.54-0.77,0.89-1.02
			c0.35-0.25,0.75-0.37,1.21-0.37c0.16,0,0.33,0.01,0.5,0.04c0.17,0.03,0.29,0.05,0.36,0.08l-0.2,1.43l-1.07-0.06
			c-0.41-0.03-0.75,0.07-1.02,0.28s-0.49,0.49-0.64,0.85v4.79l1.27,0.22v0.98H357.51z"/>
		<path d="M367.44,282.71c-0.62,0-1.12-0.18-1.49-0.55s-0.55-0.96-0.55-1.76v-5.13h-1.34v-1.14h1.34v-2.04h1.54v2.04h1.84v1.14
			h-1.84v5.13c0,0.41,0.08,0.71,0.24,0.9c0.16,0.19,0.38,0.29,0.65,0.29c0.18,0,0.39-0.02,0.61-0.05c0.22-0.04,0.4-0.06,0.52-0.09
			l0.21,1.01c-0.22,0.07-0.5,0.13-0.82,0.18C368.02,282.68,367.72,282.71,367.44,282.71z"/>
		<path d="M370.1,282.57v-0.98l1.27-0.22v-6.04l-1.27-0.22v-0.99h2.81v7.25l1.27,0.22v0.98H370.1z M371.29,272.04v-1.65h1.62v1.65
			H371.29z"/>
		<path d="M379.1,282.74c-0.78,0-1.46-0.18-2.04-0.54c-0.58-0.36-1.02-0.85-1.34-1.49c-0.32-0.64-0.47-1.37-0.47-2.2v-0.34
			c0-0.8,0.17-1.52,0.5-2.15s0.77-1.13,1.32-1.5s1.15-0.55,1.8-0.55c0.76,0,1.4,0.16,1.91,0.47s0.9,0.75,1.16,1.32
			c0.26,0.56,0.39,1.23,0.39,2v0.96h-5.48l-0.02,0.04c0.01,0.54,0.11,1.02,0.29,1.44c0.18,0.42,0.44,0.75,0.78,0.99
			c0.34,0.24,0.75,0.36,1.22,0.36c0.52,0,0.98-0.07,1.37-0.22s0.73-0.35,1.02-0.61l0.6,1c-0.3,0.29-0.7,0.54-1.2,0.74
			C380.4,282.64,379.8,282.74,379.1,282.74z M376.89,277.5h3.9v-0.2c0-0.41-0.07-0.77-0.21-1.09s-0.36-0.57-0.64-0.76
			c-0.28-0.19-0.64-0.28-1.07-0.28c-0.34,0-0.66,0.1-0.94,0.3c-0.28,0.2-0.51,0.47-0.7,0.82s-0.3,0.73-0.36,1.17L376.89,277.5z"/>
		<path d="M390.82,282.74c-0.69,0-1.28-0.17-1.77-0.51c-0.49-0.34-0.87-0.82-1.13-1.43s-0.39-1.32-0.39-2.13v-0.16
			c0-0.91,0.13-1.7,0.39-2.38c0.26-0.68,0.64-1.21,1.13-1.59c0.5-0.38,1.09-0.57,1.78-0.57c0.5,0,0.94,0.09,1.32,0.28
			c0.38,0.18,0.71,0.45,0.98,0.8v-3.45l-1.27-0.22v-0.99h1.27h1.54v10.98l1.27,0.22v0.98h-2.61l-0.12-1.01
			c-0.28,0.38-0.61,0.68-1.01,0.88C391.81,282.64,391.34,282.74,390.82,282.74z M391.21,281.49c0.46,0,0.84-0.11,1.16-0.31
			c0.31-0.21,0.57-0.5,0.77-0.88v-3.92c-0.2-0.36-0.46-0.64-0.77-0.84c-0.32-0.21-0.7-0.31-1.14-0.31c-0.49,0-0.89,0.14-1.21,0.42
			c-0.32,0.28-0.55,0.66-0.71,1.16s-0.23,1.06-0.23,1.71v0.16c0,0.85,0.17,1.53,0.52,2.05S390.48,281.49,391.21,281.49z"/>
		<path d="M400.83,282.74c-0.78,0-1.46-0.18-2.04-0.54c-0.58-0.36-1.02-0.85-1.34-1.49c-0.32-0.64-0.47-1.37-0.47-2.2v-0.34
			c0-0.8,0.17-1.52,0.5-2.15s0.77-1.13,1.32-1.5s1.15-0.55,1.8-0.55c0.76,0,1.4,0.16,1.91,0.47s0.9,0.75,1.16,1.32
			c0.26,0.56,0.39,1.23,0.39,2v0.96h-5.48l-0.02,0.04c0.01,0.54,0.11,1.02,0.29,1.44c0.18,0.42,0.44,0.75,0.78,0.99
			c0.34,0.24,0.75,0.36,1.22,0.36c0.52,0,0.98-0.07,1.37-0.22s0.73-0.35,1.02-0.61l0.6,1c-0.3,0.29-0.7,0.54-1.2,0.74
			C402.12,282.64,401.52,282.74,400.83,282.74z M398.62,277.5h3.9v-0.2c0-0.41-0.07-0.77-0.21-1.09s-0.36-0.57-0.64-0.76
			c-0.28-0.19-0.64-0.28-1.07-0.28c-0.34,0-0.66,0.1-0.94,0.3c-0.28,0.2-0.51,0.47-0.7,0.82s-0.3,0.73-0.36,1.17L398.62,277.5z"/>
		<path d="M409.15,282.57v-0.98l1.27-0.22v-9.77l-1.27-0.22v-0.99h2.81v10.98l1.27,0.22v0.98H409.15z"/>
		<path d="M417.06,282.74c-0.88,0-1.55-0.21-2.01-0.64s-0.69-1.04-0.69-1.82c0-0.54,0.15-1,0.44-1.4s0.72-0.71,1.28-0.93
			c0.56-0.22,1.22-0.33,2-0.33h1.51v-0.83c0-0.51-0.16-0.91-0.46-1.19s-0.75-0.42-1.31-0.42c-0.35,0-0.66,0.04-0.92,0.13
			s-0.5,0.2-0.71,0.36l-0.16,1.18h-1.19v-1.94c0.38-0.31,0.82-0.54,1.33-0.7c0.5-0.16,1.07-0.24,1.68-0.24
			c1.03,0,1.83,0.24,2.41,0.73c0.58,0.49,0.88,1.19,0.88,2.1v4.07c0,0.11,0,0.21,0,0.32c0,0.1,0.01,0.21,0.02,0.31l0.82,0.09v0.98
			h-2.21c-0.05-0.23-0.08-0.44-0.11-0.62c-0.03-0.18-0.04-0.37-0.05-0.55c-0.3,0.38-0.67,0.7-1.11,0.95
			C418.04,282.61,417.57,282.74,417.06,282.74z M417.29,281.45c0.51,0,0.98-0.12,1.4-0.37c0.42-0.25,0.72-0.54,0.91-0.88v-1.53
			h-1.56c-0.71,0-1.24,0.17-1.59,0.51c-0.35,0.34-0.53,0.71-0.53,1.13c0,0.37,0.11,0.65,0.34,0.85S416.82,281.45,417.29,281.45z"/>
		<path d="M431.64,282.74c-0.55,0-1.03-0.11-1.44-0.32s-0.75-0.52-1.02-0.93l-0.14,1.09h-1.33V271.6l-1.27-0.22v-0.99h2.81v4.73
			c0.27-0.38,0.59-0.66,0.99-0.86c0.39-0.2,0.85-0.3,1.38-0.3c0.7,0,1.29,0.19,1.79,0.57c0.49,0.38,0.87,0.91,1.13,1.59
			c0.26,0.68,0.39,1.48,0.39,2.38v0.16c0,0.81-0.13,1.52-0.39,2.13s-0.64,1.08-1.13,1.43C432.92,282.57,432.33,282.74,431.64,282.74
			z M431.25,281.49c0.72,0,1.26-0.26,1.61-0.77s0.53-1.2,0.53-2.05v-0.16c0-0.65-0.08-1.22-0.23-1.71s-0.39-0.88-0.71-1.16
			c-0.32-0.28-0.72-0.42-1.21-0.42c-0.47,0-0.87,0.11-1.2,0.34c-0.33,0.23-0.58,0.54-0.78,0.92v3.73c0.19,0.39,0.45,0.7,0.79,0.93
			C430.37,281.37,430.77,281.49,431.25,281.49z"/>
		<path d="M440.22,282.74c-0.78,0-1.45-0.18-2.02-0.55s-1-0.88-1.31-1.52s-0.46-1.39-0.46-2.22v-0.17c0-0.83,0.15-1.57,0.46-2.22
			s0.74-1.16,1.31-1.53c0.57-0.37,1.23-0.55,2-0.55c0.78,0,1.46,0.18,2.02,0.55c0.57,0.37,1,0.88,1.31,1.52
			c0.31,0.64,0.46,1.39,0.46,2.23v0.17c0,0.84-0.15,1.58-0.46,2.23c-0.31,0.65-0.74,1.15-1.3,1.52
			C441.67,282.55,441,282.74,440.22,282.74z M440.22,281.54c0.49,0,0.9-0.13,1.23-0.4c0.33-0.27,0.58-0.64,0.75-1.1
			c0.17-0.47,0.25-1,0.25-1.59v-0.17c0-0.59-0.08-1.12-0.25-1.59c-0.17-0.47-0.42-0.83-0.75-1.1c-0.33-0.27-0.75-0.4-1.24-0.4
			c-0.49,0-0.9,0.13-1.23,0.4c-0.33,0.27-0.58,0.63-0.75,1.1c-0.17,0.46-0.25,1-0.25,1.59v0.17c0,0.59,0.08,1.12,0.25,1.59
			c0.17,0.46,0.42,0.83,0.75,1.1C439.31,281.4,439.73,281.54,440.22,281.54z"/>
		<path d="M448.9,282.74c-0.92,0-1.63-0.29-2.15-0.88c-0.52-0.59-0.77-1.51-0.77-2.75v-3.77l-0.97-0.22v-0.99h0.97h1.54v5
			c0,0.9,0.13,1.52,0.4,1.86c0.27,0.34,0.68,0.51,1.24,0.51c0.55,0,1-0.11,1.36-0.33c0.36-0.22,0.63-0.54,0.81-0.94v-4.88
			l-1.13-0.22v-0.99h1.13h1.54v7.25l0.97,0.22v0.98h-2.35l-0.1-1.25c-0.27,0.45-0.61,0.8-1.03,1.05
			C449.93,282.62,449.45,282.74,448.9,282.74z"/>
		<path d="M458.73,282.74c-0.77,0-1.43-0.18-2-0.54c-0.57-0.36-1.01-0.85-1.32-1.49c-0.31-0.64-0.47-1.37-0.47-2.2v-0.33
			c0-0.8,0.15-1.52,0.45-2.16c0.3-0.64,0.74-1.14,1.3-1.51c0.57-0.37,1.25-0.55,2.03-0.55c0.68,0,1.28,0.11,1.79,0.34
			c0.51,0.22,0.94,0.53,1.29,0.92l0.04,2.03h-1.2l-0.27-1.48c-0.18-0.18-0.4-0.33-0.66-0.44s-0.58-0.16-0.94-0.16
			c-0.46,0-0.86,0.13-1.21,0.41c-0.35,0.27-0.62,0.63-0.81,1.09s-0.29,0.96-0.29,1.52v0.33c0,0.61,0.09,1.15,0.27,1.6
			s0.44,0.8,0.77,1.05c0.34,0.25,0.74,0.37,1.2,0.37c0.52,0,0.95-0.14,1.3-0.43c0.34-0.29,0.55-0.68,0.63-1.18h1.38l0.02,0.05
			c-0.03,0.48-0.17,0.94-0.43,1.36s-0.63,0.76-1.11,1.02S459.44,282.74,458.73,282.74z"/>
		<path d="M463.17,282.57v-0.98l1.27-0.22v-9.77l-1.27-0.22v-0.99h2.81v10.98l1.27,0.22v0.98H463.17z"/>
		<path d="M472.04,282.74c-0.78,0-1.46-0.18-2.04-0.54c-0.58-0.36-1.02-0.85-1.34-1.49c-0.32-0.64-0.47-1.37-0.47-2.2v-0.34
			c0-0.8,0.17-1.52,0.5-2.15s0.77-1.13,1.32-1.5s1.15-0.55,1.8-0.55c0.76,0,1.4,0.16,1.91,0.47s0.9,0.75,1.16,1.32
			c0.26,0.56,0.39,1.23,0.39,2v0.96h-5.48l-0.02,0.04c0.01,0.54,0.11,1.02,0.29,1.44c0.18,0.42,0.44,0.75,0.78,0.99
			c0.34,0.24,0.75,0.36,1.22,0.36c0.52,0,0.98-0.07,1.37-0.22s0.73-0.35,1.02-0.61l0.6,1c-0.3,0.29-0.7,0.54-1.2,0.74
			C473.34,282.64,472.74,282.74,472.04,282.74z M469.83,277.5h3.9v-0.2c0-0.41-0.07-0.77-0.21-1.09s-0.36-0.57-0.64-0.76
			c-0.28-0.19-0.64-0.28-1.07-0.28c-0.34,0-0.66,0.1-0.94,0.3c-0.28,0.2-0.51,0.47-0.7,0.82s-0.3,0.73-0.36,1.17L469.83,277.5z"/>
	</g>
</g>
<g id="flches">
	<polygon class="st3" points="137,99 129.24,93.26 129.24,96 121,96 121,102 129.24,102 129.24,104.72 	"/>
	<polygon class="st3" points="292.31,99.31 284.55,93.57 284.55,96.31 276.31,96.31 276.31,102.31 284.55,102.31 284.55,105.03 	"/>
	<polygon class="st3" points="548.07,99.37 540.32,93.63 540.32,96.37 532.07,96.37 532.07,102.37 540.32,102.37 540.32,105.08 	"/>
	<polygon class="st3" points="632.07,99.37 624.32,93.63 624.32,96.37 616.07,96.37 616.07,102.37 624.32,102.37 624.32,105.08 	"/>
	<polygon class="st3" points="409.89,178.78 415.63,171.02 412.89,171.02 412.89,162.78 406.89,162.78 406.89,171.02 404.17,171.02 
			"/>
	<polygon class="st3" points="409.89,249.78 415.63,242.02 412.89,242.02 412.89,233.78 406.89,233.78 406.89,242.02 404.17,242.02 
			"/>
	<polygon class="st3" points="695.13,43.13 704.68,44.56 702.74,46.5 708.57,52.32 704.32,56.57 698.5,50.74 696.58,52.66 	"/>
	<polygon class="st3" points="457.18,55.5 466.73,54.07 464.79,52.13 470.62,46.3 466.38,42.06 460.55,47.89 458.63,45.97 	"/>
</g>
</svg>
